<svg width="203" height="57" viewBox="0 0 203 57" fill="none" xmlns="http://www.w3.org/2000/svg">
<path d="M15.2344 6.42773C14.7852 6.17383 14.2969 6.02734 13.7695 5.98828C13.2617 5.94922 12.7344 5.92969 12.1875 5.92969C11.6992 5.92969 11.2402 6.02734 10.8105 6.22266C10.4004 6.41797 10.0391 6.69141 9.72656 7.04297C9.43359 7.375 9.19922 7.76563 9.02344 8.21484C8.84766 8.66406 8.75977 9.14258 8.75977 9.65039C8.75977 10.0215 8.80859 10.5293 8.90625 11.1738C9.02344 11.7988 9.16016 12.4922 9.31641 13.2539C9.49219 14.0156 9.67773 14.8164 9.87305 15.6562C10.0684 16.4766 10.2441 17.2773 10.4004 18.0586C10.5762 18.8398 10.7129 19.5625 10.8105 20.2266C10.9277 20.8711 10.9863 21.3887 10.9863 21.7793C10.9863 22.5215 10.8594 23.2246 10.6055 23.8887C10.3711 24.5527 10.0293 25.1484 9.58008 25.6758C9.15039 26.2031 8.62305 26.6523 7.99805 27.0234C7.39258 27.375 6.72852 27.6289 6.00586 27.7852C6.74805 27.9414 7.41211 28.2344 7.99805 28.6641C8.58398 29.0938 9.07227 29.6113 9.46289 30.2168C9.87305 30.8027 10.1758 31.4473 10.3711 32.1504C10.5859 32.8535 10.6934 33.5566 10.6934 34.2598C10.6934 34.6309 10.6445 35.1289 10.5469 35.7539C10.4688 36.3594 10.3613 37.0332 10.2246 37.7754C10.1074 38.498 9.9707 39.2695 9.81445 40.0898C9.6582 40.8906 9.51172 41.6621 9.375 42.4043C9.25781 43.127 9.15039 43.791 9.05273 44.3965C8.97461 45.002 8.93555 45.4805 8.93555 45.832C8.93555 46.9844 9.26758 47.8633 9.93164 48.4688C10.6152 49.0742 11.6016 49.377 12.8906 49.377C13.1055 49.377 13.3203 49.3672 13.5352 49.3477C13.7695 49.3477 13.9746 49.3379 14.1504 49.3184C14.3652 49.2988 14.5508 49.2793 14.707 49.2598L13.5645 56.0273C12.2363 55.832 10.9473 55.5098 9.69727 55.0605C8.44727 54.6113 7.33398 54.0059 6.35742 53.2441C5.38086 52.4824 4.58984 51.5352 3.98438 50.4023C3.39844 49.2891 3.10547 47.9512 3.10547 46.3887C3.10547 45.666 3.21289 44.8359 3.42773 43.8984C3.64258 42.9609 3.87695 42.0039 4.13086 41.0273C4.38477 40.0508 4.61914 39.1035 4.83398 38.1855C5.04883 37.248 5.15625 36.418 5.15625 35.6953C5.15625 35.0898 5.05859 34.5234 4.86328 33.9961C4.66797 33.4688 4.38477 33.0098 4.01367 32.6191C3.66211 32.2285 3.22266 31.9258 2.69531 31.7109C2.1875 31.4961 1.61133 31.3887 0.966797 31.3887H0.527344V25.0898C1.19141 25.0898 1.77734 24.9727 2.28516 24.7383C2.8125 24.4844 3.25195 24.1523 3.60352 23.7422C3.95508 23.3125 4.21875 22.8242 4.39453 22.2773C4.58984 21.7305 4.6875 21.1445 4.6875 20.5195C4.6875 19.9141 4.60938 19.1816 4.45312 18.3223C4.29688 17.4629 4.12109 16.5645 3.92578 15.627C3.75 14.6895 3.58398 13.7422 3.42773 12.7852C3.27148 11.8086 3.19336 10.8906 3.19336 10.0312C3.19336 8.50781 3.38867 7.13086 3.7793 5.90039C4.16992 4.66992 4.75586 3.625 5.53711 2.76562C6.31836 1.88672 7.30469 1.22266 8.49609 0.773438C9.6875 0.304688 11.0742 0.0703125 12.6562 0.0703125C12.9688 0.0703125 13.2812 0.0800781 13.5938 0.0996094C13.9062 0.119141 14.2188 0.148438 14.5312 0.1875L15.2344 6.42773ZM38.877 48.2344C38.7793 46.8867 38.6816 45.5293 38.584 44.1621C38.5059 42.7949 38.4082 41.418 38.291 40.0312C37.4316 39.9727 36.6016 39.9141 35.8008 39.8555C35 39.7969 34.1895 39.7676 33.3691 39.7676H32.9883C32.8906 41.1738 32.8027 42.5605 32.7246 43.9277C32.6465 45.2949 32.5781 46.6523 32.5195 48L25.1953 47.8828C26.4062 40.9102 27.5 33.957 28.4766 27.0234C29.4531 20.0898 30.2832 13.0977 30.9668 6.04688L39.7852 6.19336C40.5273 13.166 41.416 20.0996 42.4512 26.9941C43.5059 33.8691 44.7363 40.793 46.1426 47.7656L38.877 48.2344ZM35.4492 13.4297C35.0586 17.0234 34.6875 20.6074 34.3359 24.1816C33.9844 27.7559 33.6621 31.3594 33.3691 34.9922C33.7793 35.0312 34.1992 35.0508 34.6289 35.0508C35.0586 35.0508 35.498 35.0508 35.9473 35.0508H37.8516C37.5195 31.418 37.1484 27.8145 36.7383 24.2402C36.3281 20.666 35.8984 17.0625 35.4492 13.4297ZM66.2109 19.084C66.0547 22.2285 65.9473 25.3438 65.8887 28.4297C65.8301 31.4961 65.8008 34.582 65.8008 37.6875C65.8008 39.5234 65.8008 41.3398 65.8008 43.1367C65.8203 44.9336 65.8594 46.75 65.918 48.5859L60.0879 48.7324V45.0703C59.502 46.0273 58.8477 46.7598 58.125 47.2676C57.4023 47.7754 56.709 48.1367 56.0449 48.3516C55.4004 48.5859 54.8438 48.7129 54.375 48.7324C53.9062 48.7715 53.6328 48.791 53.5547 48.791C52.3242 48.5371 51.2988 48 50.4785 47.1797C49.6777 46.3398 49.0332 45.3047 48.5449 44.0742C48.0762 42.8242 47.7441 41.418 47.5488 39.8555C47.3535 38.293 47.2559 36.6523 47.2559 34.9336C47.2559 33.4492 47.3145 31.9355 47.4316 30.3926C47.5488 28.8496 47.6953 27.3359 47.8711 25.8516C48.0469 24.3477 48.2422 22.9023 48.457 21.5156C48.6719 20.1094 48.8867 18.8008 49.1016 17.5898L55.4883 17.707C55.3125 18.8594 55.127 20.1094 54.9316 21.457C54.7559 22.8047 54.5898 24.1816 54.4336 25.5879C54.2969 26.9941 54.1797 28.4102 54.082 29.8359C54.0039 31.2422 53.9648 32.5801 53.9648 33.8496C53.9648 35.0215 54.0137 36.1152 54.1113 37.1309C54.209 38.1465 54.3652 39.0352 54.5801 39.7969C54.7949 40.5391 55.0684 41.125 55.4004 41.5547C55.752 41.9648 56.1816 42.1699 56.6895 42.1699C57.3535 42.1699 57.9004 41.7695 58.3301 40.9688C58.7598 40.168 59.0918 39.123 59.3262 37.834C59.5801 36.5254 59.7461 35.0605 59.8242 33.4395C59.9219 31.8184 59.9707 30.1875 59.9707 28.5469C59.9707 27.3164 59.9512 26.1445 59.9121 25.0312C59.873 23.918 59.834 22.9219 59.7949 22.043C59.7363 21.0273 59.6777 20.0801 59.6191 19.2012L66.2109 19.084ZM79.8047 8.44922C79.6484 10.0312 79.5117 11.5742 79.3945 13.0781C79.2773 14.5625 79.1699 16.0469 79.0723 17.5312C79.8145 17.4922 80.5469 17.4629 81.2695 17.4434C82.0117 17.4043 82.7637 17.3457 83.5254 17.2676L83.3203 23.2148C82.5781 23.1758 81.8164 23.1562 81.0352 23.1562C80.2734 23.1562 79.5215 23.1562 78.7793 23.1562C78.623 25.9688 78.5059 28.7227 78.4277 31.418C78.3691 34.0938 78.3398 36.7988 78.3398 39.5332C78.3398 40.9395 78.3496 42.3555 78.3691 43.7812C78.4082 45.1875 78.4473 46.6133 78.4863 48.0586L72.041 48.1758C72.1777 43.9766 72.2949 39.8262 72.3926 35.7246C72.4902 31.6035 72.5391 27.4531 72.5391 23.2734C71.7969 23.3125 71.0449 23.3516 70.2832 23.3906C69.5215 23.4102 68.7695 23.4492 68.0273 23.5078L68.2617 17.0918C68.9453 17.1895 69.6484 17.2676 70.3711 17.3262C71.0938 17.3848 71.7969 17.4336 72.4805 17.4727C72.4805 15.9492 72.4609 14.4551 72.4219 12.9902C72.4023 11.5254 72.3633 10.0312 72.3047 8.50781L79.8047 8.44922ZM97.1777 47.8242C97.3145 46.8477 97.4316 45.8418 97.5293 44.8066C97.627 43.7715 97.7148 42.7363 97.793 41.7012C97.8711 40.666 97.9395 39.6504 97.998 38.6543C98.0566 37.6582 98.1055 36.7109 98.1445 35.8125C98.2227 33.7227 98.2812 31.6621 98.3203 29.6309C98.3203 27.9512 98.252 26.623 98.1152 25.6465C97.9785 24.6504 97.793 23.8984 97.5586 23.3906C97.3438 22.8633 97.0898 22.5215 96.7969 22.3652C96.5039 22.209 96.2109 22.1309 95.918 22.1309C95.5273 22.1309 95.1562 22.1992 94.8047 22.3359C94.4531 22.4531 94.1211 22.707 93.8086 23.0977C93.5156 23.4883 93.2422 24.0449 92.9883 24.7676C92.7539 25.4707 92.5488 26.4082 92.373 27.5801C92.1973 28.752 92.0605 30.1875 91.9629 31.8867C91.8848 33.5664 91.8457 35.5781 91.8457 37.9219C91.8457 38.7812 91.8457 39.6797 91.8457 40.6172C91.8457 41.5547 91.8457 42.4434 91.8457 43.2832C91.8652 44.1035 91.875 44.8359 91.875 45.4805C91.8945 46.1055 91.9238 46.5449 91.9629 46.7988L85.3418 46.7402C85.4395 43.166 85.5078 39.6309 85.5469 36.1348C85.5859 32.6191 85.6055 29.0742 85.6055 25.5C85.6055 22.2969 85.5859 19.123 85.5469 15.9785C85.5273 12.8145 85.4785 9.63086 85.4004 6.42773L92.7832 6.25195C92.666 7.56055 92.5586 8.79102 92.4609 9.94336C92.3633 11.0762 92.2754 12.1895 92.1973 13.2832C92.1387 14.3574 92.0898 15.4316 92.0508 16.5059C92.0117 17.5605 91.9824 18.6543 91.9629 19.7871C92.5684 18.791 93.2324 18.0195 93.9551 17.4727C94.6973 16.9258 95.4004 16.5156 96.0645 16.2422C96.748 15.9688 97.3438 15.8027 97.8516 15.7441C98.3594 15.6855 98.6914 15.6562 98.8477 15.6562C100.02 15.6562 100.986 16.0469 101.748 16.8281C102.51 17.6094 103.105 18.6543 103.535 19.9629C103.984 21.2715 104.297 22.7852 104.473 24.5039C104.648 26.2227 104.736 28.0195 104.736 29.8945C104.736 31.418 104.688 32.9707 104.59 34.5527C104.512 36.1348 104.414 37.6875 104.297 39.2109C104.18 40.7344 104.062 42.1992 103.945 43.6055C103.828 45.0117 103.73 46.3008 103.652 47.4727L97.1777 47.8242ZM136.846 6.95508L132.744 49.1426H125.01C124.951 47.4238 124.883 45.8125 124.805 44.3086C124.746 42.7852 124.658 41.3301 124.541 39.9434C124.424 38.5566 124.287 37.1992 124.131 35.8711C123.994 34.543 123.828 33.1855 123.633 31.7988C123.457 30.4121 123.252 28.9766 123.018 27.4922C122.783 25.9883 122.529 24.3867 122.256 22.6875C121.885 24.875 121.367 28.1562 120.703 32.5312C120.039 36.8867 119.238 42.3262 118.301 48.8496L110.186 49.2598L107.256 7.13086L114.639 6.95508C114.619 8.16602 114.609 9.48437 114.609 10.9102C114.59 12.1406 114.58 13.5566 114.58 15.1582C114.58 16.7402 114.58 18.4297 114.58 20.2266C114.58 21.6523 114.58 23.0977 114.58 24.5625C114.58 26.0273 114.58 27.4727 114.58 28.8984C114.6 30.3047 114.609 31.6621 114.609 32.9707C114.629 34.2793 114.658 35.4707 114.697 36.5449L118.711 11.0273H125.479L128.672 35.3438C128.711 33.8984 128.75 32.375 128.789 30.7734C128.848 29.1523 128.896 27.5215 128.936 25.8809C128.975 24.2402 129.004 22.6191 129.023 21.0176C129.062 19.416 129.102 17.8828 129.141 16.418C129.219 13 129.287 9.5918 129.346 6.19336L136.846 6.95508ZM155.479 47.209C153.662 47.834 152.002 48.2441 150.498 48.4395C149.014 48.6348 147.793 48.7324 146.836 48.7324C145.645 48.7324 144.6 48.498 143.701 48.0293C142.803 47.5605 142.021 46.9355 141.357 46.1543C140.713 45.373 140.176 44.4746 139.746 43.459C139.316 42.4238 138.975 41.3398 138.721 40.207C138.467 39.0742 138.281 37.9316 138.164 36.7793C138.066 35.6074 138.018 34.5039 138.018 33.4688C138.018 30.8906 138.223 28.5176 138.633 26.3496C139.043 24.1621 139.639 22.2773 140.42 20.6953C141.201 19.1133 142.168 17.8828 143.32 17.0039C144.473 16.1055 145.781 15.6562 147.246 15.6562C148.457 15.6562 149.561 15.959 150.557 16.5645C151.553 17.1699 152.402 18.0977 153.105 19.3477C153.809 20.5977 154.346 22.1895 154.717 24.123C155.107 26.0371 155.303 28.3125 155.303 30.9492C155.303 31.6914 155.283 32.4434 155.244 33.2051C155.225 33.9668 155.176 34.7578 155.098 35.5781L144.727 36.9551C144.805 37.6777 144.922 38.3613 145.078 39.0059C145.254 39.6504 145.479 40.2266 145.752 40.7344C146.045 41.2227 146.387 41.6133 146.777 41.9062C147.168 42.1992 147.646 42.3457 148.213 42.3457C149.268 42.3457 150.322 42.2871 151.377 42.1699C152.432 42.0332 153.535 41.877 154.688 41.7012L155.479 47.209ZM144.551 31.9746L149.414 31.0664V29.9531C149.414 28.293 149.287 27.0137 149.033 26.1152C148.779 25.1973 148.506 24.5234 148.213 24.0938C147.861 23.5859 147.461 23.293 147.012 23.2148C146.445 23.2734 145.996 23.5371 145.664 24.0059C145.332 24.4746 145.078 25.0801 144.902 25.8223C144.746 26.5449 144.648 27.3652 144.609 28.2832C144.57 29.2012 144.551 30.1289 144.551 31.0664V31.9746ZM176.895 33.1758C176.699 36.1055 176.318 38.5664 175.752 40.5586C175.205 42.5508 174.541 44.1621 173.76 45.3926C172.998 46.6035 172.148 47.4727 171.211 48C170.273 48.5273 169.336 48.791 168.398 48.791C167.988 48.7324 167.559 48.5762 167.109 48.3223C166.719 48.1074 166.27 47.7852 165.762 47.3555C165.273 46.9258 164.766 46.3398 164.238 45.5977V48.3516H158.438V6.7793H165.732L165.088 18.5273C165.576 17.7852 166.084 17.2285 166.611 16.8574C167.158 16.4668 167.656 16.1738 168.105 15.9785C168.633 15.7637 169.15 15.6367 169.658 15.5977C170.83 15.5977 171.826 15.9199 172.646 16.5645C173.486 17.209 174.18 18.0586 174.727 19.1133C175.293 20.1484 175.732 21.3203 176.045 22.6289C176.357 23.918 176.582 25.2168 176.719 26.5254C176.875 27.8145 176.953 29.0547 176.953 30.2461C176.973 31.418 176.953 32.3945 176.895 33.1758ZM170.654 33.2344C170.654 32.6484 170.654 31.9746 170.654 31.2129C170.674 30.4316 170.674 29.6309 170.654 28.8105C170.635 27.9902 170.576 27.1895 170.479 26.4082C170.381 25.6074 170.225 24.8945 170.01 24.2695C169.814 23.6445 169.531 23.1465 169.16 22.7754C168.809 22.3848 168.35 22.1895 167.783 22.1895C167.158 22.1895 166.631 22.4336 166.201 22.9219C165.771 23.3906 165.42 24.0059 165.146 24.7676C164.873 25.5098 164.658 26.3496 164.502 27.2871C164.365 28.2246 164.258 29.1523 164.18 30.0703C164.121 30.9883 164.082 31.8574 164.062 32.6777C164.062 33.4785 164.062 34.123 164.062 34.6113C164.062 35.7637 164.111 36.8477 164.209 37.8633C164.326 38.8594 164.502 39.7383 164.736 40.5C164.99 41.2617 165.303 41.8672 165.674 42.3164C166.064 42.7461 166.523 42.9609 167.051 42.9609C167.676 42.9609 168.213 42.668 168.662 42.082C169.111 41.4961 169.473 40.7441 169.746 39.8262C170.039 38.8887 170.254 37.8438 170.391 36.6914C170.527 35.5391 170.615 34.3867 170.654 33.2344ZM188.877 0.1875C189.17 0.148438 189.473 0.119141 189.785 0.0996094C190.117 0.0800781 190.43 0.0703125 190.723 0.0703125C192.305 0.0703125 193.691 0.304688 194.883 0.773438C196.074 1.22266 197.061 1.88672 197.842 2.76562C198.643 3.625 199.238 4.66992 199.629 5.90039C200.02 7.13086 200.215 8.50781 200.215 10.0312C200.215 10.8906 200.137 11.8086 199.98 12.7852C199.824 13.7422 199.648 14.6895 199.453 15.627C199.277 16.5645 199.111 17.4629 198.955 18.3223C198.799 19.1816 198.721 19.9141 198.721 20.5195C198.721 21.1445 198.809 21.7305 198.984 22.2773C199.18 22.8242 199.453 23.3125 199.805 23.7422C200.156 24.1523 200.586 24.4844 201.094 24.7383C201.602 24.9727 202.188 25.0898 202.852 25.0898V31.3887H202.383C201.758 31.3887 201.182 31.4961 200.654 31.7109C200.146 31.9258 199.707 32.2285 199.336 32.6191C198.984 33.0098 198.711 33.4688 198.516 33.9961C198.32 34.5234 198.223 35.0898 198.223 35.6953C198.223 36.418 198.33 37.248 198.545 38.1855C198.76 39.1035 198.994 40.0508 199.248 41.0273C199.502 42.0039 199.736 42.9609 199.951 43.8984C200.166 44.8359 200.273 45.666 200.273 46.3887C200.273 47.9512 199.971 49.2891 199.365 50.4023C198.779 51.5352 197.998 52.4824 197.021 53.2441C196.064 54.0059 194.951 54.6113 193.682 55.0605C192.432 55.5098 191.152 55.832 189.844 56.0273L188.701 49.2598C188.877 49.2793 189.062 49.2988 189.258 49.3184C189.414 49.3379 189.59 49.3477 189.785 49.3477C190 49.3672 190.215 49.377 190.43 49.377C191.758 49.377 192.754 49.0742 193.418 48.4688C194.102 47.8633 194.443 46.9844 194.443 45.832C194.443 45.4805 194.395 45.002 194.297 44.3965C194.219 43.791 194.111 43.127 193.975 42.4043C193.857 41.6621 193.721 40.8906 193.564 40.0898C193.428 39.2695 193.291 38.498 193.154 37.7754C193.037 37.0332 192.93 36.3594 192.832 35.7539C192.754 35.1289 192.715 34.6309 192.715 34.2598C192.715 33.5566 192.812 32.8535 193.008 32.1504C193.223 31.4473 193.525 30.8027 193.916 30.2168C194.326 29.6113 194.814 29.0938 195.381 28.6641C195.967 28.2344 196.641 27.9414 197.402 27.7852C196.66 27.6289 195.986 27.375 195.381 27.0234C194.775 26.6523 194.248 26.2031 193.799 25.6758C193.369 25.1484 193.027 24.5527 192.773 23.8887C192.539 23.2246 192.422 22.5215 192.422 21.7793C192.422 21.3887 192.471 20.8711 192.568 20.2266C192.686 19.5625 192.822 18.8398 192.979 18.0586C193.154 17.2773 193.33 16.4766 193.506 15.6562C193.701 14.8164 193.877 14.0156 194.033 13.2539C194.209 12.4922 194.346 11.7988 194.443 11.1738C194.561 10.5293 194.619 10.0215 194.619 9.65039C194.619 9.14258 194.531 8.66406 194.355 8.21484C194.18 7.76563 193.936 7.375 193.623 7.04297C193.33 6.69141 192.969 6.41797 192.539 6.22266C192.129 6.02734 191.689 5.92969 191.221 5.92969C190.674 5.92969 190.137 5.94922 189.609 5.98828C189.082 6.02734 188.594 6.17383 188.145 6.42773L188.877 0.1875Z" fill="#5EEAD4"/>
</svg>
