<svg width="1280" height="800" viewBox="0 0 1280 800" fill="none" xmlns="http://www.w3.org/2000/svg">
<g clip-path="url(#clip0_129_238)">
<rect width="1280" height="800" fill="white"/>
<path d="M1524.53 -24.9233C1444.96 -115.497 1331.09 -214.858 1203.81 -232.549C1073.84 -250.613 1012.15 -142.678 901.436 -111.528C826.598 -90.472 731.134 -109.717 662.923 -80.3674C584.98 -46.8305 482.837 8.87684 487.101 66.7497C490.945 118.922 310.532 126.158 394.873 271.657C414.92 306.241 457.228 318.457 496.743 314.659C851.072 280.602 606.906 700.127 1041.44 721.543C1162.06 728.16 1209.75 625.319 1307.71 588.041C1398.25 553.589 1532 572.659 1592.8 511.73C1656.11 448.29 1647.43 350.342 1635.84 259.235C1623.64 163.361 1601.9 63.149 1524.53 -24.9233Z" fill="url(#paint0_linear_129_238)" fill-opacity="0.15"/>
<path d="M1632.87 -23.0174C1553.3 -113.591 1439.43 -212.952 1312.15 -230.642C1182.18 -248.707 1120.49 -140.772 1009.77 -109.622C934.933 -88.566 839.47 -107.811 771.259 -78.4614C693.316 -44.9245 591.173 10.7828 595.437 68.6556C599.264 120.598 475.159 16.8707 568.034 137.749C592.38 169.437 633.518 181.985 673.154 179.658C1020.02 159.297 715.532 702.047 1149.78 723.449C1270.4 730.066 1318.09 627.225 1416.05 589.947C1506.58 555.495 1640.34 574.565 1701.14 513.636C1764.45 450.196 1755.76 352.248 1744.17 261.141C1731.98 165.267 1710.24 65.055 1632.87 -23.0174Z" fill="url(#paint1_linear_129_238)" fill-opacity="0.15"/>
<path d="M1554.68 -55.4194C1475.11 -145.993 1361.24 -245.354 1233.96 -263.045C1103.99 -281.109 1042.3 -173.174 931.582 -142.024C856.743 -120.968 761.28 -140.213 693.069 -110.864C615.126 -77.3266 512.983 -21.6193 517.247 36.2536C521.091 88.4255 340.678 95.6622 425.018 241.161C445.066 275.745 487.374 287.961 526.888 284.163C881.218 250.106 637.052 669.63 1071.59 691.047C1192.21 697.664 1239.9 594.823 1337.86 557.545C1428.39 523.093 1562.15 542.163 1622.95 481.234C1686.26 417.794 1677.57 319.846 1665.98 228.739C1653.79 132.865 1632.05 32.6529 1554.68 -55.4194Z" fill="url(#paint2_linear_129_238)"/>
<path d="M642.65 59.108C641.402 59.108 640.268 58.832 639.248 58.28C638.24 57.716 637.448 56.948 636.872 55.976C636.308 55.004 636.026 53.912 636.026 52.7C636.026 51.488 636.308 50.396 636.872 49.424C637.448 48.452 638.24 47.69 639.248 47.138C640.268 46.574 641.402 46.292 642.65 46.292C643.898 46.292 645.02 46.568 646.016 47.12C647.024 47.672 647.816 48.44 648.392 49.424C648.968 50.396 649.256 51.488 649.256 52.7C649.256 53.912 648.968 55.01 648.392 55.994C647.816 56.966 647.024 57.728 646.016 58.28C645.02 58.832 643.898 59.108 642.65 59.108ZM642.65 57.92C643.646 57.92 644.546 57.698 645.35 57.254C646.154 56.798 646.784 56.174 647.24 55.382C647.696 54.578 647.924 53.684 647.924 52.7C647.924 51.716 647.696 50.828 647.24 50.036C646.784 49.232 646.154 48.608 645.35 48.164C644.546 47.708 643.646 47.48 642.65 47.48C641.654 47.48 640.748 47.708 639.932 48.164C639.128 48.608 638.492 49.232 638.024 50.036C637.568 50.828 637.34 51.716 637.34 52.7C637.34 53.684 637.568 54.578 638.024 55.382C638.492 56.174 639.128 56.798 639.932 57.254C640.748 57.698 641.654 57.92 642.65 57.92ZM660.277 54.788H658.117V59H656.839V49.532H658.117V53.69H660.295L663.625 49.532H665.011L661.285 54.122L665.281 59H663.769L660.277 54.788ZM670.87 59.09C669.958 59.09 669.136 58.886 668.404 58.478C667.672 58.058 667.096 57.482 666.676 56.75C666.256 56.018 666.046 55.19 666.046 54.266C666.046 53.342 666.256 52.514 666.676 51.782C667.096 51.05 667.672 50.48 668.404 50.072C669.136 49.664 669.958 49.46 670.87 49.46C671.782 49.46 672.604 49.664 673.336 50.072C674.068 50.48 674.638 51.05 675.046 51.782C675.466 52.514 675.676 53.342 675.676 54.266C675.676 55.19 675.466 56.018 675.046 56.75C674.638 57.482 674.068 58.058 673.336 58.478C672.604 58.886 671.782 59.09 670.87 59.09ZM670.87 57.956C671.542 57.956 672.142 57.806 672.67 57.506C673.21 57.194 673.63 56.756 673.93 56.192C674.23 55.628 674.38 54.986 674.38 54.266C674.38 53.546 674.23 52.904 673.93 52.34C673.63 51.776 673.21 51.344 672.67 51.044C672.142 50.732 671.542 50.576 670.87 50.576C670.198 50.576 669.592 50.732 669.052 51.044C668.524 51.344 668.104 51.776 667.792 52.34C667.492 52.904 667.342 53.546 667.342 54.266C667.342 54.986 667.492 55.628 667.792 56.192C668.104 56.756 668.524 57.194 669.052 57.506C669.592 57.806 670.198 57.956 670.87 57.956ZM688.992 49.532V59H687.822V51.512L683.988 57.848H683.412L679.578 51.494V59H678.408V49.532H679.704L683.718 56.354L687.804 49.532H688.992ZM701.125 49.532V59H699.847V50.666H693.907V59H692.629V49.532H701.125ZM713.361 49.532V59H712.137V57.128C711.753 57.764 711.243 58.25 710.607 58.586C709.983 58.922 709.275 59.09 708.483 59.09C707.595 59.09 706.791 58.886 706.071 58.478C705.351 58.07 704.787 57.5 704.379 56.768C703.971 56.036 703.767 55.202 703.767 54.266C703.767 53.33 703.971 52.496 704.379 51.764C704.787 51.032 705.351 50.468 706.071 50.072C706.791 49.664 707.595 49.46 708.483 49.46C709.251 49.46 709.941 49.622 710.553 49.946C711.177 50.258 711.687 50.72 712.083 51.332V49.532H713.361ZM708.591 57.956C709.251 57.956 709.845 57.806 710.373 57.506C710.913 57.194 711.333 56.756 711.633 56.192C711.945 55.628 712.101 54.986 712.101 54.266C712.101 53.546 711.945 52.904 711.633 52.34C711.333 51.776 710.913 51.344 710.373 51.044C709.845 50.732 709.251 50.576 708.591 50.576C707.919 50.576 707.313 50.732 706.773 51.044C706.245 51.344 705.825 51.776 705.513 52.34C705.213 52.904 705.063 53.546 705.063 54.266C705.063 54.986 705.213 55.628 705.513 56.192C705.825 56.756 706.245 57.194 706.773 57.506C707.313 57.806 707.919 57.956 708.591 57.956ZM716.957 49.532H718.235V53.726H724.193V49.532H725.471V59H724.193V54.824H718.235V59H716.957V49.532ZM737.437 49.532V59H736.213V57.272C735.877 57.848 735.415 58.298 734.827 58.622C734.239 58.934 733.567 59.09 732.811 59.09C731.563 59.09 730.579 58.748 729.859 58.064C729.151 57.368 728.797 56.354 728.797 55.022V49.532H730.075V54.896C730.075 55.892 730.321 56.648 730.813 57.164C731.305 57.68 732.013 57.938 732.937 57.938C733.933 57.938 734.719 57.638 735.295 57.038C735.871 56.426 736.159 55.58 736.159 54.5V49.532H737.437ZM749.408 49.532V59H748.184V57.272C747.848 57.848 747.386 58.298 746.798 58.622C746.21 58.934 745.538 59.09 744.782 59.09C743.534 59.09 742.55 58.748 741.83 58.064C741.122 57.368 740.768 56.354 740.768 55.022V49.532H742.046V54.896C742.046 55.892 742.292 56.648 742.784 57.164C743.276 57.68 743.984 57.938 744.908 57.938C745.904 57.938 746.69 57.638 747.266 57.038C747.842 56.426 748.13 55.58 748.13 54.5V49.532H749.408Z" fill="white"/>
<path d="M876.364 57.848V61.952H875.122V59H864.124V46.4H865.438V57.848H873.052V46.4H874.366V57.848H876.364ZM882.457 57.956C883.045 57.956 883.585 57.854 884.077 57.65C884.581 57.434 885.007 57.122 885.355 56.714L886.075 57.542C885.655 58.046 885.133 58.43 884.509 58.694C883.885 58.958 883.195 59.09 882.439 59.09C881.467 59.09 880.603 58.886 879.847 58.478C879.091 58.058 878.503 57.482 878.083 56.75C877.663 56.018 877.453 55.19 877.453 54.266C877.453 53.342 877.651 52.514 878.047 51.782C878.455 51.05 879.013 50.48 879.721 50.072C880.429 49.664 881.233 49.46 882.133 49.46C882.973 49.46 883.729 49.652 884.401 50.036C885.085 50.42 885.625 50.954 886.021 51.638C886.429 52.322 886.645 53.102 886.669 53.978L878.893 55.49C879.133 56.258 879.565 56.864 880.189 57.308C880.825 57.74 881.581 57.956 882.457 57.956ZM882.133 50.558C881.473 50.558 880.879 50.714 880.351 51.026C879.835 51.326 879.427 51.752 879.127 52.304C878.839 52.844 878.695 53.468 878.695 54.176C878.695 54.356 878.701 54.488 878.713 54.572L885.391 53.276C885.247 52.484 884.881 51.836 884.293 51.332C883.705 50.816 882.985 50.558 882.133 50.558ZM889.306 49.532H890.584V53.726H896.542V49.532H897.82V59H896.542V54.824H890.584V59H889.306V49.532ZM905.215 59.198C903.919 59.198 902.923 58.88 902.227 58.244C901.543 57.596 901.201 56.684 901.201 55.508V49.532H902.479V53.474C902.767 53.126 903.169 52.838 903.685 52.61C904.201 52.382 904.801 52.268 905.485 52.268C906.637 52.268 907.531 52.568 908.167 53.168C908.815 53.756 909.139 54.56 909.139 55.58C909.139 56.288 908.977 56.918 908.653 57.47C908.341 58.01 907.885 58.436 907.285 58.748C906.697 59.048 906.007 59.198 905.215 59.198ZM910.687 49.532H911.965V59H910.687V49.532ZM905.251 58.208C906.067 58.208 906.703 57.968 907.159 57.488C907.615 56.996 907.843 56.372 907.843 55.616C907.843 54.908 907.609 54.338 907.141 53.906C906.673 53.462 906.013 53.24 905.161 53.24C904.537 53.24 903.991 53.372 903.523 53.636C903.067 53.9 902.719 54.266 902.479 54.734V55.598C902.479 56.414 902.713 57.056 903.181 57.524C903.661 57.98 904.351 58.208 905.251 58.208ZM928.648 49.532V59H927.424V57.272C927.088 57.848 926.626 58.298 926.038 58.622C925.45 58.934 924.778 59.09 924.022 59.09C922.774 59.09 921.79 58.748 921.07 58.064C920.362 57.368 920.008 56.354 920.008 55.022V49.532H921.286V54.896C921.286 55.892 921.532 56.648 922.024 57.164C922.516 57.68 923.224 57.938 924.148 57.938C925.144 57.938 925.93 57.638 926.506 57.038C927.082 56.426 927.37 55.58 927.37 54.5V49.532H928.648ZM945.492 49.532V59H944.214V50.666H938.274V59H936.996V49.532H945.492ZM953.481 49.46C954.405 49.46 955.227 49.664 955.947 50.072C956.667 50.48 957.225 51.05 957.621 51.782C958.029 52.514 958.233 53.348 958.233 54.284C958.233 55.22 958.035 56.054 957.639 56.786C957.243 57.506 956.691 58.07 955.983 58.478C955.287 58.886 954.489 59.09 953.589 59.09C952.797 59.09 952.089 58.934 951.465 58.622C950.853 58.298 950.355 57.836 949.971 57.236V62.492H948.693V54.302C948.693 53.354 948.891 52.514 949.287 51.782C949.695 51.05 950.259 50.48 950.979 50.072C951.711 49.664 952.545 49.46 953.481 49.46ZM953.445 57.974C954.117 57.974 954.723 57.818 955.263 57.506C955.803 57.194 956.223 56.756 956.523 56.192C956.823 55.628 956.973 54.992 956.973 54.284C956.973 53.576 956.823 52.94 956.523 52.376C956.223 51.812 955.803 51.374 955.263 51.062C954.723 50.738 954.117 50.576 953.445 50.576C952.773 50.576 952.167 50.732 951.627 51.044C951.099 51.356 950.685 51.794 950.385 52.358C950.097 52.91 949.953 53.546 949.953 54.266C949.953 54.986 950.097 55.628 950.385 56.192C950.685 56.756 951.099 57.194 951.627 57.506C952.167 57.818 952.773 57.974 953.445 57.974ZM964.896 59.09C963.984 59.09 963.162 58.886 962.43 58.478C961.698 58.058 961.122 57.482 960.702 56.75C960.282 56.018 960.072 55.19 960.072 54.266C960.072 53.342 960.282 52.514 960.702 51.782C961.122 51.05 961.698 50.48 962.43 50.072C963.162 49.664 963.984 49.46 964.896 49.46C965.808 49.46 966.63 49.664 967.362 50.072C968.094 50.48 968.664 51.05 969.072 51.782C969.492 52.514 969.702 53.342 969.702 54.266C969.702 55.19 969.492 56.018 969.072 56.75C968.664 57.482 968.094 58.058 967.362 58.478C966.63 58.886 965.808 59.09 964.896 59.09ZM964.896 57.956C965.568 57.956 966.168 57.806 966.696 57.506C967.236 57.194 967.656 56.756 967.956 56.192C968.256 55.628 968.406 54.986 968.406 54.266C968.406 53.546 968.256 52.904 967.956 52.34C967.656 51.776 967.236 51.344 966.696 51.044C966.168 50.732 965.568 50.576 964.896 50.576C964.224 50.576 963.618 50.732 963.078 51.044C962.55 51.344 962.13 51.776 961.818 52.34C961.518 52.904 961.368 53.546 961.368 54.266C961.368 54.986 961.518 55.628 961.818 56.192C962.13 56.756 962.55 57.194 963.078 57.506C963.618 57.806 964.224 57.956 964.896 57.956ZM979.129 50.666H973.711V59H972.433V49.532H979.129V50.666ZM985.332 49.46C986.256 49.46 987.078 49.664 987.798 50.072C988.518 50.48 989.076 51.05 989.472 51.782C989.88 52.514 990.084 53.348 990.084 54.284C990.084 55.22 989.886 56.054 989.49 56.786C989.094 57.506 988.542 58.07 987.834 58.478C987.138 58.886 986.34 59.09 985.44 59.09C984.648 59.09 983.94 58.934 983.316 58.622C982.704 58.298 982.206 57.836 981.822 57.236V62.492H980.544V54.302C980.544 53.354 980.742 52.514 981.138 51.782C981.546 51.05 982.11 50.48 982.83 50.072C983.562 49.664 984.396 49.46 985.332 49.46ZM985.296 57.974C985.968 57.974 986.574 57.818 987.114 57.506C987.654 57.194 988.074 56.756 988.374 56.192C988.674 55.628 988.824 54.992 988.824 54.284C988.824 53.576 988.674 52.94 988.374 52.376C988.074 51.812 987.654 51.374 987.114 51.062C986.574 50.738 985.968 50.576 985.296 50.576C984.624 50.576 984.018 50.732 983.478 51.044C982.95 51.356 982.536 51.794 982.236 52.358C981.948 52.91 981.804 53.546 981.804 54.266C981.804 54.986 981.948 55.628 982.236 56.192C982.536 56.756 982.95 57.194 983.478 57.506C984.018 57.818 984.624 57.974 985.296 57.974ZM1001.45 49.532V59H1000.22V57.128C999.837 57.764 999.327 58.25 998.691 58.586C998.067 58.922 997.359 59.09 996.567 59.09C995.679 59.09 994.875 58.886 994.155 58.478C993.435 58.07 992.871 57.5 992.463 56.768C992.055 56.036 991.851 55.202 991.851 54.266C991.851 53.33 992.055 52.496 992.463 51.764C992.871 51.032 993.435 50.468 994.155 50.072C994.875 49.664 995.679 49.46 996.567 49.46C997.335 49.46 998.025 49.622 998.637 49.946C999.261 50.258 999.771 50.72 1000.17 51.332V49.532H1001.45ZM996.675 57.956C997.335 57.956 997.929 57.806 998.457 57.506C998.997 57.194 999.417 56.756 999.717 56.192C1000.03 55.628 1000.19 54.986 1000.19 54.266C1000.19 53.546 1000.03 52.904 999.717 52.34C999.417 51.776 998.997 51.344 998.457 51.044C997.929 50.732 997.335 50.576 996.675 50.576C996.003 50.576 995.397 50.732 994.857 51.044C994.329 51.344 993.909 51.776 993.597 52.34C993.297 52.904 993.147 53.546 993.147 54.266C993.147 54.986 993.297 55.628 993.597 56.192C993.909 56.756 994.329 57.194 994.857 57.506C995.397 57.806 996.003 57.956 996.675 57.956ZM1015.62 49.532V59H1014.45V51.512L1010.62 57.848H1010.04L1006.21 51.494V59H1005.04V49.532H1006.34L1010.35 56.354L1014.44 49.532H1015.62ZM1029.85 49.532V59H1028.68V51.512L1024.84 57.848H1024.27L1020.43 51.494V59H1019.26V49.532H1020.56L1024.57 56.354L1028.66 49.532H1029.85ZM1037.24 59.198C1035.95 59.198 1034.95 58.88 1034.26 58.244C1033.57 57.596 1033.23 56.684 1033.23 55.508V49.532H1034.51V53.474C1034.8 53.126 1035.2 52.838 1035.71 52.61C1036.23 52.382 1036.83 52.268 1037.51 52.268C1038.67 52.268 1039.56 52.568 1040.2 53.168C1040.84 53.756 1041.17 54.56 1041.17 55.58C1041.17 56.288 1041.01 56.918 1040.68 57.47C1040.37 58.01 1039.91 58.436 1039.31 58.748C1038.73 59.048 1038.04 59.198 1037.24 59.198ZM1042.72 49.532H1043.99V59H1042.72V49.532ZM1037.28 58.208C1038.1 58.208 1038.73 57.968 1039.19 57.488C1039.64 56.996 1039.87 56.372 1039.87 55.616C1039.87 54.908 1039.64 54.338 1039.17 53.906C1038.7 53.462 1038.04 53.24 1037.19 53.24C1036.57 53.24 1036.02 53.372 1035.55 53.636C1035.1 53.9 1034.75 54.266 1034.51 54.734V55.598C1034.51 56.414 1034.74 57.056 1035.21 57.524C1035.69 57.98 1036.38 58.208 1037.28 58.208Z" fill="white"/>
<path d="M196.606 77.916C201.847 77.916 204.957 74.7208 205.045 74.6367C205.134 74.5526 205.223 74.3844 205.223 74.2163L203.891 65.8919C204.335 64.8829 206.822 59.6697 206.822 57.3153C206.822 55.97 205.845 54.7087 203.891 53.6997L203.802 53.6156V53.5315C204.69 48.4024 205.578 43.021 206.2 38.985C206.467 37.3874 205.49 36.4625 204.512 36.2943C204.335 36.2943 204.157 36.2102 204.068 36.2102C203.002 36.2102 202.291 37.051 202.025 37.8078C201.137 40.4144 200.515 42.6847 200.071 44.5345C199.626 46.1321 199.182 47.8138 198.827 48.3183L198.738 48.4865L198.649 48.3183C198.205 47.8138 197.494 45.964 196.695 43.7778C196.162 42.2643 195.451 40.4144 194.563 38.0601C194.296 37.2192 193.497 36.2943 192.431 36.2943C192.253 36.2943 192.075 36.2943 191.898 36.3784C191.365 36.5465 190.92 36.8829 190.654 37.3033C190.387 37.8078 190.298 38.3964 190.387 38.985C190.654 40.2462 191.453 43.6096 192.431 47.0571L192.519 47.3093L192.253 47.2252C191.986 47.1411 191.72 47.0571 191.453 47.0571C191.098 47.0571 190.654 47.1411 190.387 47.3093C189.588 47.7297 189.232 48.4024 189.232 49.4955C189.232 49.9159 189.321 50.3363 189.321 50.3363L189.41 50.5886L189.144 50.5045C189.055 50.5045 189.055 50.5045 189.055 50.5045C188.877 50.4204 188.699 50.4204 188.522 50.4204C188.166 50.4204 187.722 50.5045 187.367 50.7568C186.123 51.5135 185.59 53.1111 185.945 55.5496C186.656 60.6787 188.699 64.4625 189.232 65.4715L187.989 74.2163C187.989 74.3844 187.989 74.5526 188.166 74.6367C188.166 74.7208 191.365 77.916 196.606 77.916Z" fill="#FFDC00"/>
<path d="M187.189 50.5886C187.811 50.2522 188.433 50.1681 189.055 50.3363H189.144C189.144 50.3363 189.055 49.9159 189.055 49.4114C189.055 48.3183 189.41 47.5615 190.299 47.1411C190.654 46.9729 191.009 46.8889 191.453 46.8889C191.72 46.8889 192.075 46.9729 192.342 47.057C191.365 43.5255 190.476 40.1621 190.299 38.9849C190.21 38.3123 190.299 37.7237 190.565 37.2192C190.832 36.7147 191.365 36.3783 191.898 36.2102C193.23 35.8738 194.296 36.8828 194.74 37.9759C195.629 40.3303 196.339 42.1801 196.873 43.6937C197.672 45.8798 198.383 47.8138 198.738 48.2342C199.093 47.7297 199.538 46.048 199.982 44.4504C200.426 42.6006 201.048 40.4144 201.936 37.7237C202.292 36.7147 203.269 35.7897 204.601 36.042C205.667 36.2942 206.645 37.2192 206.378 38.9009C205.756 42.9369 204.868 48.3183 203.979 53.4474C205.49 54.2042 207 55.3814 207 57.1471C206.911 59.5015 204.512 64.7147 203.979 65.8078L205.312 74.1321C205.312 74.3003 205.312 74.5525 205.134 74.6366C205.046 74.8048 201.847 78 196.606 78C191.365 78 188.078 74.8048 187.989 74.6366C187.811 74.4685 187.811 74.3003 187.811 74.1321L189.055 65.3874C188.522 64.4624 186.479 60.5946 185.768 55.3814C185.413 52.9429 185.857 51.3453 187.189 50.5886ZM191.365 48.2342C191.187 48.2342 191.009 48.2342 190.92 48.3183C190.299 48.6546 189.766 49.5795 192.342 54.2883C193.053 55.6336 193.586 56.3904 193.941 56.979C194.474 57.6516 194.74 57.7357 194.829 57.7357C194.829 57.7357 194.829 57.7357 194.918 57.7357C194.918 57.7357 195.273 57.5675 194.918 55.9699C194.563 54.5405 193.852 52.2702 192.875 49.4955C192.608 48.6546 192.075 48.2342 191.365 48.2342ZM204.957 38.7327C205.046 37.8918 204.69 37.3873 204.246 37.3033C203.891 37.2192 203.446 37.3873 203.18 38.06C202.292 40.6666 201.67 42.9369 201.226 44.7027C200.87 46.048 200.515 47.1411 200.248 47.9819C200.071 48.4865 199.626 49.5795 198.738 49.5795C197.85 49.5795 197.406 48.8228 196.961 48.066C196.517 47.2252 196.073 45.9639 195.451 44.1141C194.918 42.6006 194.207 40.7507 193.319 38.4804C193.053 37.8078 192.608 37.3873 192.075 37.5555C191.631 37.6396 191.276 38.1441 191.453 38.8168C191.72 40.4144 193.141 45.7958 194.474 50.3363C194.474 50.3363 194.74 51.009 194.829 51.3453C194.918 51.1771 195.096 51.009 195.185 50.8408C195.273 50.6726 195.629 50.4204 196.162 50.5886C196.339 50.6726 196.517 50.6726 196.784 50.8408C197.494 51.0931 198.827 51.6817 201.314 52.5225C201.67 52.6066 202.025 52.7747 202.558 52.9429C203.535 47.8979 204.424 42.6006 204.957 38.7327ZM187.1 55.2973C187.9 60.8468 190.387 64.967 190.387 64.967C190.476 65.1351 190.476 65.2192 190.476 65.3874L189.233 74.048C190.032 74.7207 192.697 76.7387 196.606 76.7387C200.515 76.7387 203.18 74.7207 203.891 74.048L202.558 65.8919C202.558 65.7237 202.558 65.6396 202.647 65.5555C203.446 63.8739 205.579 59.1651 205.579 57.2312C205.667 55.3814 202.114 54.2042 201.048 53.7838C198.56 52.9429 196.339 52.018 196.251 52.018C195.895 52.6066 195.806 53.027 195.895 53.5315C196.162 54.5405 197.583 55.2132 198.738 55.8018C199.893 56.3904 200.781 56.8108 200.781 57.6516C200.781 58.2402 200.337 58.7447 199.893 59.2492C199.271 60.006 198.56 60.5946 198.383 61.5195C198.116 62.6126 198.383 63.3694 198.472 64.042C198.472 64.2943 198.56 64.5465 198.383 64.7988C198.205 64.5465 196.961 63.033 197.228 61.0991C197.494 59.8378 198.116 59.2492 198.827 58.4925C199.005 58.2402 199.271 57.988 199.36 57.8198C199.182 57.6516 198.56 57.3153 198.027 57.063C197.494 56.8108 196.873 56.4744 196.339 56.1381C196.517 57.063 196.695 58.5766 195.451 59.0811C195.273 59.1651 195.096 59.1651 194.829 59.1651C194.385 59.1651 194.03 58.997 193.586 58.6606C193.674 59.2492 193.586 59.6696 193.408 60.006C193.23 60.3423 193.053 60.4264 192.875 60.5105C192.519 60.6787 191.986 60.6787 191.542 60.5946C190.476 60.1742 189.588 59.1651 189.144 58.0721C188.611 57.063 188.433 56.054 188.522 55.4654C188.522 55.2973 188.7 55.1291 188.788 55.045C188.966 55.4654 189.41 56.3063 190.032 57.3153C190.743 58.4925 191.542 59.2492 191.986 59.4174C192.164 59.5015 192.253 59.4174 192.253 59.4174C192.342 59.2492 192.519 58.0721 190.654 54.2042C189.766 52.3543 189.055 51.8498 188.7 51.7657C188.522 51.7657 188.344 51.6817 187.989 51.8498C186.923 52.2702 186.923 53.9519 187.1 55.2973Z" fill="#733BBD"/>
<path d="M67.2595 69.4234V56.3063C67.2595 56.1381 67.1707 55.97 66.9041 55.97H65.2162C64.9497 55.97 64.8609 56.1381 64.8609 56.3063V62.1081C63.9725 62.7808 62.1958 63.4535 60.5079 63.4535C58.5535 63.4535 57.4874 62.949 57.4874 60.9309V56.3063C57.4874 56.1381 57.3986 55.97 57.2209 55.97H55.2665C55.0888 55.97 55 56.1381 55 56.3063V61.0991C55 63.958 56.7767 65.5556 59.7972 65.5556C62.1958 65.5556 63.9725 64.2102 64.6832 62.7808H64.7721V69.4234C64.7721 69.5916 64.8609 69.7598 65.1274 69.7598H66.8153C67.0818 69.7598 67.2595 69.5916 67.2595 69.4234ZM110.878 69.9279C114.343 69.9279 116.831 67.9099 116.831 64.6306C116.831 61.4354 114.343 59.2493 110.967 59.2493C107.68 59.2493 105.193 61.4354 105.193 64.6306C105.104 67.9099 107.503 69.9279 110.878 69.9279ZM103.771 59.5015H94.8878C94.6213 59.5015 94.5324 59.6697 94.5324 59.8378V60.9309C94.5324 61.0991 94.6213 61.2673 94.8878 61.2673H98.0859V69.4234C98.0859 69.6757 98.2636 69.7598 98.4413 69.7598H100.129C100.396 69.7598 100.396 69.5916 100.396 69.4234V61.2673H103.683C103.86 61.2673 103.949 61.1832 103.949 60.9309V59.8378C104.127 59.5856 103.949 59.5015 103.771 59.5015ZM110.878 68.0781C109.102 68.0781 107.414 66.7327 107.414 64.5466C107.414 62.5285 109.102 61.1832 110.878 61.1832C112.833 61.1832 114.432 62.5285 114.432 64.5466C114.432 66.8168 112.833 68.0781 110.878 68.0781ZM93.8217 67.3213L93.7329 67.2373C92.9334 67.6577 91.512 67.994 90.2683 67.994C88.1362 67.994 86.4483 66.8168 86.4483 64.7147C86.4483 62.5285 88.0473 61.1832 90.0018 61.1832C91.2455 61.1832 92.3115 61.7718 92.8445 62.1081L92.9334 62.024V60.1742C92.9334 60.006 92.8445 59.9219 92.6669 59.7538C92.2227 59.5015 91.2455 59.1652 89.9129 59.1652C86.7148 59.1652 84.0497 61.3514 84.0497 64.5466C84.0497 67.7418 86.5371 69.8439 89.4687 69.8439C92.1338 69.9279 93.5552 68.4985 93.8217 67.3213ZM79.2525 63.3694V69.4234C79.2525 69.5916 79.4302 69.7598 79.6078 69.7598H81.3846C81.5622 69.7598 81.6511 69.5916 81.6511 69.4234V59.3333H81.5622L73.3892 65.8919V59.8378C73.3892 59.6697 73.2116 59.5015 73.0339 59.5015H71.346C71.1683 59.5015 71.0795 59.6697 71.0795 59.8378V70.012H71.1683L79.2525 63.3694ZM132.022 69.4234V56.3063C132.022 56.1381 131.933 55.97 131.666 55.97H129.978C129.712 55.97 129.623 56.1381 129.623 56.3063V62.1081C128.735 62.7808 126.958 63.4535 125.27 63.4535C123.316 63.4535 122.25 62.949 122.25 60.9309V56.3063C122.25 56.1381 122.161 55.97 121.983 55.97H120.117C119.94 55.97 119.851 56.1381 119.851 56.3063V61.0991C119.851 63.958 121.628 65.5556 124.648 65.5556C127.047 65.5556 128.823 64.2102 129.534 62.7808H129.623V69.4234C129.623 69.5916 129.712 69.7598 129.978 69.7598H131.666C131.933 69.7598 132.022 69.5916 132.022 69.4234ZM175.641 69.9279C179.105 69.9279 181.593 67.9099 181.593 64.6306C181.593 61.4354 179.105 59.2493 175.729 59.2493C172.442 59.2493 169.955 61.4354 169.955 64.6306C169.866 67.9099 172.265 69.9279 175.641 69.9279ZM168.534 59.5015H159.65C159.383 59.5015 159.295 59.6697 159.295 59.8378V60.9309C159.295 61.0991 159.383 61.2673 159.65 61.2673H162.848V69.4234C162.848 69.6757 163.026 69.7598 163.203 69.7598H164.891C165.158 69.7598 165.158 69.5916 165.158 69.4234V61.2673H168.445C168.622 61.2673 168.711 61.1832 168.711 60.9309V59.8378C168.889 59.5856 168.711 59.5015 168.534 59.5015ZM175.729 68.0781C173.953 68.0781 172.265 66.7327 172.265 64.5466C172.265 62.5285 173.953 61.1832 175.729 61.1832C177.684 61.1832 179.283 62.5285 179.283 64.5466C179.194 66.8168 177.595 68.0781 175.729 68.0781ZM158.584 67.3213L158.495 67.2373C157.696 67.6577 156.274 67.994 155.03 67.994C152.898 67.994 151.21 66.8168 151.21 64.7147C151.21 62.5285 152.809 61.1832 154.764 61.1832C156.008 61.1832 157.074 61.7718 157.607 62.1081L157.695 62.024V60.1742C157.695 60.006 157.607 59.9219 157.429 59.7538C156.985 59.5015 156.008 59.1652 154.675 59.1652C151.477 59.1652 148.812 61.3514 148.812 64.5466C148.812 67.7418 151.299 69.8439 154.231 69.8439C156.985 69.9279 158.406 68.4985 158.584 67.3213ZM144.015 63.3694V69.4234C144.015 69.5916 144.192 69.7598 144.37 69.7598H146.147C146.324 69.7598 146.413 69.5916 146.413 69.4234V59.3333H146.324L138.151 65.8919V59.8378C138.151 59.6697 137.974 59.5015 137.796 59.5015H136.108C135.93 59.5015 135.842 59.6697 135.842 59.8378V70.012H135.93L144.015 63.3694Z" fill="#6E09EC"/>
<path d="M1163.63 59.108C1162.38 59.108 1161.26 58.832 1160.25 58.28C1159.25 57.728 1158.47 56.966 1157.89 55.994C1157.33 55.01 1157.04 53.912 1157.04 52.7C1157.04 51.488 1157.33 50.396 1157.89 49.424C1158.47 48.44 1159.26 47.672 1160.27 47.12C1161.27 46.568 1162.4 46.292 1163.65 46.292C1164.59 46.292 1165.45 46.448 1166.24 46.76C1167.03 47.072 1167.71 47.528 1168.26 48.128L1167.41 48.974C1166.43 47.978 1165.19 47.48 1163.69 47.48C1162.69 47.48 1161.78 47.708 1160.97 48.164C1160.15 48.62 1159.51 49.244 1159.04 50.036C1158.59 50.828 1158.36 51.716 1158.36 52.7C1158.36 53.684 1158.59 54.572 1159.04 55.364C1159.51 56.156 1160.15 56.78 1160.97 57.236C1161.78 57.692 1162.69 57.92 1163.69 57.92C1165.2 57.92 1166.44 57.416 1167.41 56.408L1168.26 57.254C1167.71 57.854 1167.03 58.316 1166.22 58.64C1165.43 58.952 1164.57 59.108 1163.63 59.108ZM1182.51 49.46C1183.7 49.46 1184.63 49.802 1185.3 50.486C1185.98 51.17 1186.33 52.178 1186.33 53.51V59H1185.05V53.636C1185.05 52.652 1184.81 51.902 1184.33 51.386C1183.86 50.87 1183.19 50.612 1182.33 50.612C1181.35 50.612 1180.57 50.918 1180.01 51.53C1179.44 52.13 1179.16 52.964 1179.16 54.032V59H1177.88V53.636C1177.88 52.652 1177.64 51.902 1177.16 51.386C1176.7 50.87 1176.02 50.612 1175.15 50.612C1174.18 50.612 1173.4 50.918 1172.83 51.53C1172.26 52.13 1171.98 52.964 1171.98 54.032V59H1170.7V49.532H1171.93V51.26C1172.26 50.684 1172.73 50.24 1173.33 49.928C1173.93 49.616 1174.62 49.46 1175.4 49.46C1176.19 49.46 1176.88 49.628 1177.45 49.964C1178.04 50.3 1178.48 50.798 1178.77 51.458C1179.11 50.834 1179.61 50.348 1180.26 50C1180.92 49.64 1181.67 49.46 1182.51 49.46ZM1198.27 49.532V59H1197.05V57.128C1196.67 57.764 1196.16 58.25 1195.52 58.586C1194.9 58.922 1194.19 59.09 1193.4 59.09C1192.51 59.09 1191.7 58.886 1190.98 58.478C1190.26 58.07 1189.7 57.5 1189.29 56.768C1188.88 56.036 1188.68 55.202 1188.68 54.266C1188.68 53.33 1188.88 52.496 1189.29 51.764C1189.7 51.032 1190.26 50.468 1190.98 50.072C1191.7 49.664 1192.51 49.46 1193.4 49.46C1194.16 49.46 1194.85 49.622 1195.47 49.946C1196.09 50.258 1196.6 50.72 1197 51.332V49.532H1198.27ZM1193.5 57.956C1194.16 57.956 1194.76 57.806 1195.29 57.506C1195.83 57.194 1196.25 56.756 1196.55 56.192C1196.86 55.628 1197.01 54.986 1197.01 54.266C1197.01 53.546 1196.86 52.904 1196.55 52.34C1196.25 51.776 1195.83 51.344 1195.29 51.044C1194.76 50.732 1194.16 50.576 1193.5 50.576C1192.83 50.576 1192.23 50.732 1191.69 51.044C1191.16 51.344 1190.74 51.776 1190.43 52.34C1190.13 52.904 1189.98 53.546 1189.98 54.266C1189.98 54.986 1190.13 55.628 1190.43 56.192C1190.74 56.756 1191.16 57.194 1191.69 57.506C1192.23 57.806 1192.83 57.956 1193.5 57.956ZM1213.68 49.46C1214.86 49.46 1215.79 49.802 1216.47 50.486C1217.15 51.17 1217.49 52.178 1217.49 53.51V59H1216.21V53.636C1216.21 52.652 1215.97 51.902 1215.49 51.386C1215.03 50.87 1214.36 50.612 1213.5 50.612C1212.51 50.612 1211.74 50.918 1211.17 51.53C1210.61 52.13 1210.33 52.964 1210.33 54.032V59H1209.05V53.636C1209.05 52.652 1208.81 51.902 1208.33 51.386C1207.86 50.87 1207.19 50.612 1206.31 50.612C1205.34 50.612 1204.57 50.918 1203.99 51.53C1203.43 52.13 1203.15 52.964 1203.15 54.032V59H1201.87V49.532H1203.09V51.26C1203.43 50.684 1203.9 50.24 1204.5 49.928C1205.1 49.616 1205.79 49.46 1206.57 49.46C1207.36 49.46 1208.04 49.628 1208.62 49.964C1209.21 50.3 1209.64 50.798 1209.93 51.458C1210.28 50.834 1210.78 50.348 1211.43 50C1212.09 49.64 1212.84 49.46 1213.68 49.46ZM1224.65 59.198C1223.36 59.198 1222.35 58.874 1221.65 58.226C1220.94 57.578 1220.58 56.672 1220.58 55.508V49.532H1221.86V53.474C1222.17 53.102 1222.6 52.808 1223.14 52.592C1223.69 52.376 1224.3 52.268 1224.98 52.268C1226.15 52.268 1227.06 52.568 1227.71 53.168C1228.37 53.768 1228.7 54.572 1228.7 55.58C1228.7 56.672 1228.34 57.548 1227.62 58.208C1226.9 58.868 1225.91 59.198 1224.65 59.198ZM1224.67 58.208C1225.52 58.208 1226.19 57.968 1226.67 57.488C1227.16 57.008 1227.41 56.384 1227.41 55.616C1227.41 54.896 1227.17 54.32 1226.69 53.888C1226.21 53.456 1225.53 53.24 1224.65 53.24C1224 53.24 1223.43 53.372 1222.94 53.636C1222.46 53.9 1222.1 54.266 1221.86 54.734V55.598C1221.86 56.414 1222.11 57.056 1222.6 57.524C1223.1 57.98 1223.79 58.208 1224.67 58.208ZM1239.52 49.532V59H1238.3V57.272C1237.96 57.848 1237.5 58.298 1236.91 58.622C1236.33 58.934 1235.65 59.09 1234.9 59.09C1233.65 59.09 1232.67 58.748 1231.95 58.064C1231.24 57.368 1230.88 56.354 1230.88 55.022V49.532H1232.16V54.896C1232.16 55.892 1232.41 56.648 1232.9 57.164C1233.39 57.68 1234.1 57.938 1235.02 57.938C1236.02 57.938 1236.81 57.638 1237.38 57.038C1237.96 56.426 1238.25 55.58 1238.25 54.5V49.532H1239.52Z" fill="white"/>
<path d="M811.275 42.0507L798.617 38.6592L795.281 51.108L789.439 49.5427L792.775 37.0938L780.118 33.7023L781.59 28.2081L794.247 31.5996L797.602 19.0812L803.444 20.6466L800.089 33.165L812.747 36.5565L811.275 42.0507Z" fill="#E3D2FF" fill-opacity="0.1"/>
<path d="M884.275 171.051L871.617 167.659L868.281 180.108L862.439 178.543L865.775 166.094L853.118 162.702L854.59 157.208L867.247 160.6L870.602 148.081L876.444 149.647L873.089 162.165L885.747 165.557L884.275 171.051Z" fill="#E3D2FF" fill-opacity="0.1"/>
<path d="M1080.28 0.0507212L1067.62 -3.34084L1064.28 9.10801L1058.44 7.54267L1061.78 -4.90618L1049.12 -8.29775L1050.59 -13.7919L1063.25 -10.4004L1066.6 -22.9188L1072.44 -21.3534L1069.09 -8.83503L1081.75 -5.44347L1080.28 0.0507212Z" fill="#E3D2FF" fill-opacity="0.1"/>
<path d="M1182.28 219.051L1169.62 215.659L1166.28 228.108L1160.44 226.543L1163.78 214.094L1151.12 210.702L1152.59 205.208L1165.25 208.6L1168.6 196.081L1174.44 197.647L1171.09 210.165L1183.75 213.557L1182.28 219.051Z" fill="#E3D2FF" fill-opacity="0.1"/>
<path d="M603.275 237.051L590.617 233.659L587.281 246.108L581.439 244.543L584.775 232.094L572.118 228.702L573.59 223.208L586.247 226.6L589.602 214.081L595.444 215.647L592.089 228.165L604.747 231.557L603.275 237.051Z" fill="#E3D2FF" fill-opacity="0.1"/>
<path d="M580.275 127.051L567.617 123.659L564.281 136.108L558.439 134.543L561.775 122.094L549.118 118.702L550.59 113.208L563.247 116.6L566.602 104.081L572.444 105.647L569.089 118.165L581.747 121.557L580.275 127.051Z" fill="#E3D2FF" fill-opacity="0.1"/>
<path d="M833.275 361.051L820.617 357.659L817.281 370.108L811.439 368.543L814.775 356.094L802.118 352.702L803.59 347.208L816.247 350.6L819.602 338.081L825.444 339.647L822.089 352.165L834.747 355.557L833.275 361.051Z" fill="#E3D2FF" fill-opacity="0.1"/>
<path d="M899.275 519.051L886.617 515.659L883.281 528.108L877.439 526.543L880.775 514.094L868.118 510.702L869.59 505.208L882.247 508.6L885.602 496.081L891.444 497.647L888.089 510.165L900.747 513.557L899.275 519.051Z" fill="#E3D2FF" fill-opacity="0.1"/>
<path d="M1058.28 654.051L1045.62 650.659L1042.28 663.108L1036.44 661.543L1039.78 649.094L1027.12 645.702L1028.59 640.208L1041.25 643.6L1044.6 631.081L1050.44 632.647L1047.09 645.165L1059.75 648.557L1058.28 654.051Z" fill="#E3D2FF" fill-opacity="0.1"/>
<path d="M1268.28 435.051L1255.62 431.659L1252.28 444.108L1246.44 442.543L1249.78 430.094L1237.12 426.702L1238.59 421.208L1251.25 424.6L1254.6 412.081L1260.44 413.647L1257.09 426.165L1269.75 429.557L1268.28 435.051Z" fill="#E3D2FF" fill-opacity="0.1"/>
<path d="M676.41 159.39C672.987 159.39 669.91 158.632 667.18 157.115C664.45 155.598 662.305 153.518 660.745 150.875C659.229 148.188 658.47 145.155 658.47 141.775C658.47 138.395 659.229 135.383 660.745 132.74C662.305 130.053 664.45 127.973 667.18 126.5C669.91 124.983 672.987 124.225 676.41 124.225C679.834 124.225 682.889 124.983 685.575 126.5C688.305 127.973 690.429 130.053 691.945 132.74C693.505 135.383 694.285 138.395 694.285 141.775C694.285 145.155 693.505 148.188 691.945 150.875C690.429 153.518 688.305 155.598 685.575 157.115C682.889 158.632 679.834 159.39 676.41 159.39ZM676.41 153.93C678.62 153.93 680.592 153.432 682.325 152.435C684.102 151.395 685.489 149.965 686.485 148.145C687.482 146.282 687.98 144.158 687.98 141.775C687.98 139.392 687.482 137.29 686.485 135.47C685.489 133.607 684.102 132.177 682.325 131.18C680.592 130.183 678.62 129.685 676.41 129.685C674.2 129.685 672.207 130.183 670.43 131.18C668.697 132.177 667.31 133.607 666.27 135.47C665.274 137.29 664.775 139.392 664.775 141.775C664.775 144.158 665.274 146.282 666.27 148.145C667.31 149.965 668.697 151.395 670.43 152.435C672.207 153.432 674.2 153.93 676.41 153.93Z" fill="#F1E8FE" fill-opacity="0.1"/>
<path d="M612.41 51.39C608.987 51.39 605.91 50.6317 603.18 49.115C600.45 47.5983 598.305 45.5183 596.745 42.875C595.229 40.1883 594.47 37.155 594.47 33.775C594.47 30.395 595.229 27.3833 596.745 24.74C598.305 22.0533 600.45 19.9733 603.18 18.5C605.91 16.9833 608.987 16.225 612.41 16.225C615.834 16.225 618.889 16.9833 621.575 18.5C624.305 19.9733 626.429 22.0533 627.945 24.74C629.505 27.3833 630.285 30.395 630.285 33.775C630.285 37.155 629.505 40.1883 627.945 42.875C626.429 45.5183 624.305 47.5983 621.575 49.115C618.889 50.6317 615.834 51.39 612.41 51.39ZM612.41 45.93C614.62 45.93 616.592 45.4317 618.325 44.435C620.102 43.395 621.489 41.965 622.485 40.145C623.482 38.2817 623.98 36.1583 623.98 33.775C623.98 31.3917 623.482 29.29 622.485 27.47C621.489 25.6067 620.102 24.1767 618.325 23.18C616.592 22.1833 614.62 21.685 612.41 21.685C610.2 21.685 608.207 22.1833 606.43 23.18C604.697 24.1767 603.31 25.6067 602.27 27.47C601.274 29.29 600.775 31.3917 600.775 33.775C600.775 36.1583 601.274 38.2817 602.27 40.145C603.31 41.965 604.697 43.395 606.43 44.435C608.207 45.4317 610.2 45.93 612.41 45.93Z" fill="#F1E8FE" fill-opacity="0.1"/>
<path d="M487.41 199.39C483.987 199.39 480.91 198.632 478.18 197.115C475.45 195.598 473.305 193.518 471.745 190.875C470.229 188.188 469.47 185.155 469.47 181.775C469.47 178.395 470.229 175.383 471.745 172.74C473.305 170.053 475.45 167.973 478.18 166.5C480.91 164.983 483.987 164.225 487.41 164.225C490.834 164.225 493.889 164.983 496.575 166.5C499.305 167.973 501.429 170.053 502.945 172.74C504.505 175.383 505.285 178.395 505.285 181.775C505.285 185.155 504.505 188.188 502.945 190.875C501.429 193.518 499.305 195.598 496.575 197.115C493.889 198.632 490.834 199.39 487.41 199.39ZM487.41 193.93C489.62 193.93 491.592 193.432 493.325 192.435C495.102 191.395 496.489 189.965 497.485 188.145C498.482 186.282 498.98 184.158 498.98 181.775C498.98 179.392 498.482 177.29 497.485 175.47C496.489 173.607 495.102 172.177 493.325 171.18C491.592 170.183 489.62 169.685 487.41 169.685C485.2 169.685 483.207 170.183 481.43 171.18C479.697 172.177 478.31 173.607 477.27 175.47C476.274 177.29 475.775 179.392 475.775 181.775C475.775 184.158 476.274 186.282 477.27 188.145C478.31 189.965 479.697 191.395 481.43 192.435C483.207 193.432 485.2 193.93 487.41 193.93Z" fill="#F1E8FE" fill-opacity="0.1"/>
<path d="M1199.41 593.39C1195.99 593.39 1192.91 592.632 1190.18 591.115C1187.45 589.598 1185.31 587.518 1183.75 584.875C1182.23 582.188 1181.47 579.155 1181.47 575.775C1181.47 572.395 1182.23 569.383 1183.75 566.74C1185.31 564.053 1187.45 561.973 1190.18 560.5C1192.91 558.983 1195.99 558.225 1199.41 558.225C1202.83 558.225 1205.89 558.983 1208.58 560.5C1211.31 561.973 1213.43 564.053 1214.95 566.74C1216.51 569.383 1217.29 572.395 1217.29 575.775C1217.29 579.155 1216.51 582.188 1214.95 584.875C1213.43 587.518 1211.31 589.598 1208.58 591.115C1205.89 592.632 1202.83 593.39 1199.41 593.39ZM1199.41 587.93C1201.62 587.93 1203.59 587.432 1205.33 586.435C1207.1 585.395 1208.49 583.965 1209.49 582.145C1210.48 580.282 1210.98 578.158 1210.98 575.775C1210.98 573.392 1210.48 571.29 1209.49 569.47C1208.49 567.607 1207.1 566.177 1205.33 565.18C1203.59 564.183 1201.62 563.685 1199.41 563.685C1197.2 563.685 1195.21 564.183 1193.43 565.18C1191.7 566.177 1190.31 567.607 1189.27 569.47C1188.27 571.29 1187.78 573.392 1187.78 575.775C1187.78 578.158 1188.27 580.282 1189.27 582.145C1190.31 583.965 1191.7 585.395 1193.43 586.435C1195.21 587.432 1197.2 587.93 1199.41 587.93Z" fill="#F1E8FE" fill-opacity="0.1"/>
<path d="M1222.41 326.39C1218.99 326.39 1215.91 325.632 1213.18 324.115C1210.45 322.598 1208.31 320.518 1206.75 317.875C1205.23 315.188 1204.47 312.155 1204.47 308.775C1204.47 305.395 1205.23 302.383 1206.75 299.74C1208.31 297.053 1210.45 294.973 1213.18 293.5C1215.91 291.983 1218.99 291.225 1222.41 291.225C1225.83 291.225 1228.89 291.983 1231.58 293.5C1234.31 294.973 1236.43 297.053 1237.95 299.74C1239.51 302.383 1240.29 305.395 1240.29 308.775C1240.29 312.155 1239.51 315.188 1237.95 317.875C1236.43 320.518 1234.31 322.598 1231.58 324.115C1228.89 325.632 1225.83 326.39 1222.41 326.39ZM1222.41 320.93C1224.62 320.93 1226.59 320.432 1228.33 319.435C1230.1 318.395 1231.49 316.965 1232.49 315.145C1233.48 313.282 1233.98 311.158 1233.98 308.775C1233.98 306.392 1233.48 304.29 1232.49 302.47C1231.49 300.607 1230.1 299.177 1228.33 298.18C1226.59 297.183 1224.62 296.685 1222.41 296.685C1220.2 296.685 1218.21 297.183 1216.43 298.18C1214.7 299.177 1213.31 300.607 1212.27 302.47C1211.27 304.29 1210.78 306.392 1210.78 308.775C1210.78 311.158 1211.27 313.282 1212.27 315.145C1213.31 316.965 1214.7 318.395 1216.43 319.435C1218.21 320.432 1220.2 320.93 1222.41 320.93Z" fill="#F1E8FE" fill-opacity="0.1"/>
<path d="M744.41 261.39C740.987 261.39 737.91 260.632 735.18 259.115C732.45 257.598 730.305 255.518 728.745 252.875C727.229 250.188 726.47 247.155 726.47 243.775C726.47 240.395 727.229 237.383 728.745 234.74C730.305 232.053 732.45 229.973 735.18 228.5C737.91 226.983 740.987 226.225 744.41 226.225C747.834 226.225 750.889 226.983 753.575 228.5C756.305 229.973 758.429 232.053 759.945 234.74C761.505 237.383 762.285 240.395 762.285 243.775C762.285 247.155 761.505 250.188 759.945 252.875C758.429 255.518 756.305 257.598 753.575 259.115C750.889 260.632 747.834 261.39 744.41 261.39ZM744.41 255.93C746.62 255.93 748.592 255.432 750.325 254.435C752.102 253.395 753.489 251.965 754.485 250.145C755.482 248.282 755.98 246.158 755.98 243.775C755.98 241.392 755.482 239.29 754.485 237.47C753.489 235.607 752.102 234.177 750.325 233.18C748.592 232.183 746.62 231.685 744.41 231.685C742.2 231.685 740.207 232.183 738.43 233.18C736.697 234.177 735.31 235.607 734.27 237.47C733.274 239.29 732.775 241.392 732.775 243.775C732.775 246.158 733.274 248.282 734.27 250.145C735.31 251.965 736.697 253.395 738.43 254.435C740.207 255.432 742.2 255.93 744.41 255.93Z" fill="#F1E8FE" fill-opacity="0.1"/>
<path d="M900.41 279.39C896.987 279.39 893.91 278.632 891.18 277.115C888.45 275.598 886.305 273.518 884.745 270.875C883.229 268.188 882.47 265.155 882.47 261.775C882.47 258.395 883.229 255.383 884.745 252.74C886.305 250.053 888.45 247.973 891.18 246.5C893.91 244.983 896.987 244.225 900.41 244.225C903.834 244.225 906.889 244.983 909.575 246.5C912.305 247.973 914.429 250.053 915.945 252.74C917.505 255.383 918.285 258.395 918.285 261.775C918.285 265.155 917.505 268.188 915.945 270.875C914.429 273.518 912.305 275.598 909.575 277.115C906.889 278.632 903.834 279.39 900.41 279.39ZM900.41 273.93C902.62 273.93 904.592 273.432 906.325 272.435C908.102 271.395 909.489 269.965 910.485 268.145C911.482 266.282 911.98 264.158 911.98 261.775C911.98 259.392 911.482 257.29 910.485 255.47C909.489 253.607 908.102 252.177 906.325 251.18C904.592 250.183 902.62 249.685 900.41 249.685C898.2 249.685 896.207 250.183 894.43 251.18C892.697 252.177 891.31 253.607 890.27 255.47C889.274 257.29 888.775 259.392 888.775 261.775C888.775 264.158 889.274 266.282 890.27 268.145C891.31 269.965 892.697 271.395 894.43 272.435C896.207 273.432 898.2 273.93 900.41 273.93Z" fill="#F1E8FE" fill-opacity="0.1"/>
<path d="M1240.41 145.39C1236.99 145.39 1233.91 144.632 1231.18 143.115C1228.45 141.598 1226.31 139.518 1224.75 136.875C1223.23 134.188 1222.47 131.155 1222.47 127.775C1222.47 124.395 1223.23 121.383 1224.75 118.74C1226.31 116.053 1228.45 113.973 1231.18 112.5C1233.91 110.983 1236.99 110.225 1240.41 110.225C1243.83 110.225 1246.89 110.983 1249.58 112.5C1252.31 113.973 1254.43 116.053 1255.95 118.74C1257.51 121.383 1258.29 124.395 1258.29 127.775C1258.29 131.155 1257.51 134.188 1255.95 136.875C1254.43 139.518 1252.31 141.598 1249.58 143.115C1246.89 144.632 1243.83 145.39 1240.41 145.39ZM1240.41 139.93C1242.62 139.93 1244.59 139.432 1246.33 138.435C1248.1 137.395 1249.49 135.965 1250.49 134.145C1251.48 132.282 1251.98 130.158 1251.98 127.775C1251.98 125.392 1251.48 123.29 1250.49 121.47C1249.49 119.607 1248.1 118.177 1246.33 117.18C1244.59 116.183 1242.62 115.685 1240.41 115.685C1238.2 115.685 1236.21 116.183 1234.43 117.18C1232.7 118.177 1231.31 119.607 1230.27 121.47C1229.27 123.29 1228.78 125.392 1228.78 127.775C1228.78 130.158 1229.27 132.282 1230.27 134.145C1231.31 135.965 1232.7 137.395 1234.43 138.435C1236.21 139.432 1238.2 139.93 1240.41 139.93Z" fill="#F1E8FE" fill-opacity="0.1"/>
<path d="M1101.41 106.39C1097.99 106.39 1094.91 105.632 1092.18 104.115C1089.45 102.598 1087.31 100.518 1085.75 97.875C1084.23 95.1883 1083.47 92.155 1083.47 88.775C1083.47 85.395 1084.23 82.3833 1085.75 79.74C1087.31 77.0533 1089.45 74.9733 1092.18 73.5C1094.91 71.9833 1097.99 71.225 1101.41 71.225C1104.83 71.225 1107.89 71.9833 1110.58 73.5C1113.31 74.9733 1115.43 77.0533 1116.95 79.74C1118.51 82.3833 1119.29 85.395 1119.29 88.775C1119.29 92.155 1118.51 95.1883 1116.95 97.875C1115.43 100.518 1113.31 102.598 1110.58 104.115C1107.89 105.632 1104.83 106.39 1101.41 106.39ZM1101.41 100.93C1103.62 100.93 1105.59 100.432 1107.33 99.435C1109.1 98.395 1110.49 96.965 1111.49 95.145C1112.48 93.2817 1112.98 91.1583 1112.98 88.775C1112.98 86.3917 1112.48 84.29 1111.49 82.47C1110.49 80.6067 1109.1 79.1767 1107.33 78.18C1105.59 77.1833 1103.62 76.685 1101.41 76.685C1099.2 76.685 1097.21 77.1833 1095.43 78.18C1093.7 79.1767 1092.31 80.6067 1091.27 82.47C1090.27 84.29 1089.78 86.3917 1089.78 88.775C1089.78 91.1583 1090.27 93.2817 1091.27 95.145C1092.31 96.965 1093.7 98.395 1095.43 99.435C1097.21 100.432 1099.2 100.93 1101.41 100.93Z" fill="#F1E8FE" fill-opacity="0.1"/>
<path fill-rule="evenodd" clip-rule="evenodd" d="M1013.09 413.844L922.558 583.372L854.683 726.694H840.063L953.789 413.844L1013.09 413.844Z" fill="#FFD5B0"/>
<path fill-rule="evenodd" clip-rule="evenodd" d="M863.623 720.078C864.986 724.154 865.667 727.203 865.667 729.227C865.667 731.688 865.301 735.279 864.569 740C862.021 740 839.114 740 795.849 740C794.064 733.387 795.094 729.818 798.942 729.29C802.789 728.763 805.986 728.287 808.531 727.862L840.471 711.914C841.086 711.607 841.806 711.916 842.08 712.604C842.085 712.616 842.089 712.628 842.094 712.64L844.147 718.218C847.708 720.079 850.603 721.01 852.83 721.01C854.639 721.01 857.137 720.192 860.325 718.555L860.325 718.555C861.549 717.927 862.995 718.528 863.556 719.898C863.58 719.958 863.602 720.018 863.623 720.078Z" fill="#E4E4E4"/>
<path fill-rule="evenodd" clip-rule="evenodd" d="M873.534 703.744L845.34 694.192C857.692 652.831 872.832 607.316 890.759 557.645C908.686 507.974 927.939 460.04 948.518 413.844H1028.15C1005.27 472.28 981.013 525.377 955.382 573.135C929.751 620.893 902.468 664.429 873.534 703.744Z" fill="#020074"/>
<path fill-rule="evenodd" clip-rule="evenodd" d="M1019.04 413.844C1027.59 473.417 1044.07 549.529 1045.62 551.878C1046.66 553.444 1083.99 567.454 1157.61 593.908L1154.45 608.347C1066.66 594.16 1020.4 583.153 1015.68 575.326C1008.59 563.585 973.192 470.837 959.484 413.844H1019.04Z" fill="#FFE4CC"/>
<path fill-rule="evenodd" clip-rule="evenodd" d="M1131.73 581.426L1126.17 604.682C1060.5 611.132 1020.27 606.471 1005.47 590.699C990.666 574.927 973.794 515.976 954.855 413.844H1030.79C1042.79 497.476 1049.49 541.047 1050.91 544.558C1052.33 548.069 1079.27 560.358 1131.73 581.426Z" fill="#030095"/>
<path fill-rule="evenodd" clip-rule="evenodd" d="M1154 587.892C1157.82 587.096 1160.62 586.874 1162.4 587.225C1164.57 587.653 1167.66 588.68 1171.68 590.307C1171.24 593.119 1167.26 618.386 1159.75 666.108C1153.63 666.929 1150.67 665.172 1150.87 660.837C1151.08 656.501 1151.21 652.893 1151.28 650.012L1142.8 612.012C1142.64 611.28 1143.04 610.54 1143.69 610.357C1143.7 610.354 1143.71 610.351 1143.72 610.348L1148.99 609.052C1151.24 605.447 1152.56 602.416 1152.95 599.959C1153.26 597.964 1152.98 595.065 1152.09 591.265L1152.09 591.265C1151.75 589.806 1152.53 588.315 1153.83 587.935C1153.89 587.918 1153.95 587.904 1154 587.892Z" fill="#E4E4E4"/>
<path fill-rule="evenodd" clip-rule="evenodd" d="M954.644 172.675C948.798 191.895 941.18 235.097 948.953 241.874H998.135C998.14 241.796 998.145 241.718 998.149 241.641C1016.38 239.841 1030.56 226.051 1030.56 209.308V177.532C1030.56 159.565 1014.23 145 994.094 145H990.702C972.415 145 957.272 157.012 954.644 172.675Z" fill="#FFF5B3"/>
<path fill-rule="evenodd" clip-rule="evenodd" d="M1011.46 203.24C1019.27 195.056 1024.56 185.026 1023.68 173.788C1021.13 141.406 970.607 148.53 960.78 164.873C950.952 181.217 952.12 222.673 964.821 225.594C969.886 226.759 980.677 223.905 991.659 217.999L984.766 261.51H1025.47L1011.46 203.24Z" fill="#FFE4CC"/>
<path fill-rule="evenodd" clip-rule="evenodd" d="M1000.45 197.77C998.578 215.743 999.329 236.267 1004.92 241.139H1054.1C1056.84 198.661 1030.36 215.11 1030.36 175.115C1028.71 173.676 1027.15 172.251 1025.6 171.023L1025.66 169.847C1017.14 154.291 1006.34 146.513 993.243 146.513C973.604 146.513 967.406 154.666 962.128 161.589C966.074 173.671 981.39 175.462 994.999 182.994C996.603 181.831 998.649 181.134 1000.88 181.134C1006.03 181.134 1010.2 184.86 1010.2 189.456C1010.2 194.052 1006.03 197.778 1000.88 197.778C1000.73 197.778 1000.59 197.775 1000.45 197.77Z" fill="#FFF5B3"/>
<path fill-rule="evenodd" clip-rule="evenodd" d="M889.086 371.808L836.888 407.057C822.726 410.564 810.895 414.931 801.395 420.158C799.152 422.039 796.442 425.849 805.752 425.197C815.062 424.545 824.887 424.244 826.174 427.167C827.462 430.09 821.83 433.58 824.431 437.525C826.164 440.155 834.338 433.57 848.951 417.771L900.654 398.076L889.086 371.808ZM1125.42 357.284L1096.59 362.066C1130.11 423.197 1148.07 455.519 1150.45 459.033C1155.82 466.94 1150.42 481.174 1148.38 488.684C1160.25 491.436 1155.85 474.855 1170.87 478.554C1184.57 481.93 1196.09 490.197 1209.12 479.527C1210.72 478.216 1211.95 474.052 1206.61 471.816C1193.31 466.246 1173.69 455.905 1170.55 451.966C1166.27 446.593 1151.23 415.033 1125.42 357.284Z" fill="#FFDC00"/>
<path fill-rule="evenodd" clip-rule="evenodd" d="M876.875 375.886C870.155 375.443 862.844 376.467 855.007 378.896C851.15 380.091 849.077 383.936 850.376 387.484C851.131 389.545 852.857 391.052 854.928 391.719C853.428 392.725 851.915 393.726 850.389 394.721L863.566 419.468C919.017 394.034 971.136 374.859 994.886 332.871C1002.86 318.778 1000.16 270.91 1000.92 253.495L983.406 246.888C958.993 293.309 925.954 337.844 876.875 375.886Z" fill="#5A2C98"/>
<path fill-rule="evenodd" clip-rule="evenodd" d="M1062.44 415.4C1010.96 420.603 970.437 420.603 940.876 415.4C937.213 414.756 937.374 400.232 939.073 396.266C965.522 334.498 982.921 289.28 982.921 246.377C987.774 248.709 996.267 249.059 1008.4 247.426C1041.01 291.639 1056 342.368 1062.44 415.4Z" fill="#ABABAB"/>
<path fill-rule="evenodd" clip-rule="evenodd" d="M1072.01 422.703C1073.75 421.19 1074.66 418.922 1074.22 416.584L1073.36 412.134C1072.79 409.118 1070.12 406.922 1066.98 406.578C1066.43 404.318 1065.96 402.074 1065.56 399.845C1062.26 381.022 1067.91 362.565 1067.64 344.44C1093.97 365.106 1117.59 400.791 1138.51 451.494L1169.43 443.123C1168.25 439.09 1167.03 435.106 1165.77 431.173C1169.34 429.307 1173.51 420.757 1170.51 419.326C1167.4 417.849 1164.12 416.809 1160.66 416.197C1132.3 337.627 1085.93 280.165 1021.54 243.813H1012.7L1002.92 243.813C1008.4 310.515 932.667 456.14 958.964 580.508C1007.57 590.494 1076.96 559.427 1144.51 584.247C1141.99 534.162 1091.65 475.324 1072.01 422.703V422.703Z" fill="#733BBD"/>
<path fill-rule="evenodd" clip-rule="evenodd" d="M1014.78 245.319L1023.23 269.217L1006.21 287.133L1021.59 301.212L984.391 359.801L1029.88 301.329L1014.78 287.133L1029.88 271.301L1014.78 245.319Z" fill="black" fill-opacity="0.1"/>
<path fill-rule="evenodd" clip-rule="evenodd" d="M995.301 382.396C998.918 382.396 1001.85 379.699 1001.85 376.371C1001.85 373.043 998.918 370.346 995.301 370.346C991.683 370.346 988.75 373.043 988.75 376.371C988.75 379.699 991.683 382.396 995.301 382.396ZM987.113 417.042C990.73 417.042 993.663 414.345 993.663 411.017C993.663 407.689 990.73 404.992 987.113 404.992C983.495 404.992 980.563 407.689 980.563 411.017C980.563 414.345 983.495 417.042 987.113 417.042ZM985.475 451.688C989.093 451.688 992.025 448.991 992.025 445.663C992.025 442.335 989.093 439.638 985.475 439.638C981.858 439.638 978.925 442.335 978.925 445.663C978.925 448.991 981.858 451.688 985.475 451.688Z" fill="black" fill-opacity="0.4"/>
<path d="M80.452 408.8V434H77.824V411.104H61.876V434H59.248V408.8H80.452ZM96.155 434.18C94.331 434.18 92.687 433.772 91.223 432.956C89.759 432.116 88.607 430.964 87.767 429.5C86.927 428.036 86.507 426.38 86.507 424.532C86.507 422.684 86.927 421.028 87.767 419.564C88.607 418.1 89.759 416.96 91.223 416.144C92.687 415.328 94.331 414.92 96.155 414.92C97.979 414.92 99.623 415.328 101.087 416.144C102.551 416.96 103.691 418.1 104.507 419.564C105.347 421.028 105.767 422.684 105.767 424.532C105.767 426.38 105.347 428.036 104.507 429.5C103.691 430.964 102.551 432.116 101.087 432.956C99.623 433.772 97.979 434.18 96.155 434.18ZM96.155 431.912C97.499 431.912 98.699 431.612 99.755 431.012C100.835 430.388 101.675 429.512 102.275 428.384C102.875 427.256 103.175 425.972 103.175 424.532C103.175 423.092 102.875 421.808 102.275 420.68C101.675 419.552 100.835 418.688 99.755 418.088C98.699 417.464 97.499 417.152 96.155 417.152C94.811 417.152 93.599 417.464 92.519 418.088C91.463 418.688 90.623 419.552 89.999 420.68C89.399 421.808 89.099 423.092 89.099 424.532C89.099 425.972 89.399 427.256 89.999 428.384C90.623 429.512 91.463 430.388 92.519 431.012C93.599 431.612 94.811 431.912 96.155 431.912ZM125.522 415.064V434H122.966V426.116C120.782 427.076 118.634 427.556 116.522 427.556C114.242 427.556 112.466 427.04 111.194 426.008C109.922 424.952 109.286 423.38 109.286 421.292V415.064H111.842V421.148C111.842 422.564 112.298 423.644 113.21 424.388C114.122 425.108 115.382 425.468 116.99 425.468C118.766 425.468 120.758 425 122.966 424.064V415.064H125.522ZM132.781 415.064H135.337V430.112L147.973 415.064H150.241V434H147.685V418.952L135.085 434H132.781V415.064ZM165.486 434.18C163.614 434.18 161.934 433.772 160.446 432.956C158.982 432.14 157.83 431 156.99 429.536C156.15 428.048 155.73 426.38 155.73 424.532C155.73 422.684 156.15 421.028 156.99 419.564C157.83 418.1 158.982 416.96 160.446 416.144C161.934 415.328 163.614 414.92 165.486 414.92C167.118 414.92 168.57 415.244 169.842 415.892C171.138 416.516 172.158 417.44 172.902 418.664L170.994 419.96C170.37 419.024 169.578 418.328 168.618 417.872C167.658 417.392 166.614 417.152 165.486 417.152C164.118 417.152 162.882 417.464 161.778 418.088C160.698 418.688 159.846 419.552 159.222 420.68C158.622 421.808 158.322 423.092 158.322 424.532C158.322 425.996 158.622 427.292 159.222 428.42C159.846 429.524 160.698 430.388 161.778 431.012C162.882 431.612 164.118 431.912 165.486 431.912C166.614 431.912 167.658 431.684 168.618 431.228C169.578 430.772 170.37 430.076 170.994 429.14L172.902 430.436C172.158 431.66 171.138 432.596 169.842 433.244C168.546 433.868 167.094 434.18 165.486 434.18ZM190.819 417.332H183.655V434H181.099V417.332H173.935V415.064H190.819V417.332ZM194.515 415.064H197.071V430.112L209.707 415.064H211.975V434H209.419V418.952L196.819 434H194.515V415.064ZM240.468 415.064V434H238.128V419.024L230.46 431.696H229.308L221.64 418.988V434H219.3V415.064H221.892L229.92 428.708L238.092 415.064H240.468ZM264.039 425.576H259.719V434H257.163V415.064H259.719V423.38H264.075L270.735 415.064H273.507L266.055 424.244L274.047 434H271.023L264.039 425.576ZM290.141 424.208C292.709 424.808 293.993 426.356 293.993 428.852C293.993 430.508 293.381 431.78 292.157 432.668C290.933 433.556 289.109 434 286.685 434H278.081V415.064H286.433C288.593 415.064 290.285 415.484 291.509 416.324C292.733 417.164 293.345 418.364 293.345 419.924C293.345 420.956 293.057 421.844 292.481 422.588C291.929 423.308 291.149 423.848 290.141 424.208ZM280.565 423.488H286.253C287.717 423.488 288.833 423.212 289.601 422.66C290.393 422.108 290.789 421.304 290.789 420.248C290.789 419.192 290.393 418.4 289.601 417.872C288.833 417.344 287.717 417.08 286.253 417.08H280.565V423.488ZM286.577 431.984C288.209 431.984 289.433 431.72 290.249 431.192C291.065 430.664 291.473 429.836 291.473 428.708C291.473 427.58 291.101 426.752 290.357 426.224C289.613 425.672 288.437 425.396 286.829 425.396H280.565V431.984H286.577ZM306.5 414.92C308.972 414.92 310.868 415.544 312.188 416.792C313.508 418.016 314.168 419.84 314.168 422.264V434H311.72V431.048C311.144 432.032 310.292 432.8 309.164 433.352C308.06 433.904 306.74 434.18 305.204 434.18C303.092 434.18 301.412 433.676 300.164 432.668C298.916 431.66 298.292 430.328 298.292 428.672C298.292 427.064 298.868 425.768 300.02 424.784C301.196 423.8 303.056 423.308 305.6 423.308H311.612V422.156C311.612 420.524 311.156 419.288 310.244 418.448C309.332 417.584 308 417.152 306.248 417.152C305.048 417.152 303.896 417.356 302.792 417.764C301.688 418.148 300.74 418.688 299.948 419.384L298.796 417.476C299.756 416.66 300.908 416.036 302.252 415.604C303.596 415.148 305.012 414.92 306.5 414.92ZM305.6 432.164C307.04 432.164 308.276 431.84 309.308 431.192C310.34 430.52 311.108 429.56 311.612 428.312V425.216H305.672C302.432 425.216 300.812 426.344 300.812 428.6C300.812 429.704 301.232 430.58 302.072 431.228C302.912 431.852 304.088 432.164 305.6 432.164ZM330.728 414.92C332.504 414.92 334.112 415.328 335.552 416.144C336.992 416.936 338.12 418.064 338.936 419.528C339.752 420.992 340.16 422.66 340.16 424.532C340.16 426.428 339.752 428.108 338.936 429.572C338.12 431.036 336.992 432.176 335.552 432.992C334.136 433.784 332.528 434.18 330.728 434.18C329.192 434.18 327.8 433.868 326.552 433.244C325.328 432.596 324.32 431.66 323.528 430.436V440.984H320.972V415.064H323.42V418.808C324.188 417.56 325.196 416.6 326.444 415.928C327.716 415.256 329.144 414.92 330.728 414.92ZM330.548 431.912C331.868 431.912 333.068 431.612 334.148 431.012C335.228 430.388 336.068 429.512 336.668 428.384C337.292 427.256 337.604 425.972 337.604 424.532C337.604 423.092 337.292 421.82 336.668 420.716C336.068 419.588 335.228 418.712 334.148 418.088C333.068 417.464 331.868 417.152 330.548 417.152C329.204 417.152 327.992 417.464 326.912 418.088C325.856 418.712 325.016 419.588 324.392 420.716C323.792 421.82 323.492 423.092 323.492 424.532C323.492 425.972 323.792 427.256 324.392 428.384C325.016 429.512 325.856 430.388 326.912 431.012C327.992 431.612 329.204 431.912 330.548 431.912ZM358.269 417.332H351.105V434H348.549V417.332H341.385V415.064H358.269V417.332ZM361.964 415.064H364.52V430.112L377.156 415.064H379.424V434H376.868V418.952L364.268 434H361.964V415.064ZM396.505 414.92C398.281 414.92 399.889 415.328 401.329 416.144C402.769 416.936 403.897 418.064 404.713 419.528C405.529 420.992 405.937 422.66 405.937 424.532C405.937 426.428 405.529 428.108 404.713 429.572C403.897 431.036 402.769 432.176 401.329 432.992C399.913 433.784 398.305 434.18 396.505 434.18C394.969 434.18 393.577 433.868 392.329 433.244C391.105 432.596 390.097 431.66 389.305 430.436V440.984H386.749V415.064H389.197V418.808C389.965 417.56 390.973 416.6 392.221 415.928C393.493 415.256 394.921 414.92 396.505 414.92ZM396.325 431.912C397.645 431.912 398.845 431.612 399.925 431.012C401.005 430.388 401.845 429.512 402.445 428.384C403.069 427.256 403.381 425.972 403.381 424.532C403.381 423.092 403.069 421.82 402.445 420.716C401.845 419.588 401.005 418.712 399.925 418.088C398.845 417.464 397.645 417.152 396.325 417.152C394.981 417.152 393.769 417.464 392.689 418.088C391.633 418.712 390.793 419.588 390.169 420.716C389.569 421.82 389.269 423.092 389.269 424.532C389.269 425.972 389.569 427.256 390.169 428.384C390.793 429.512 391.633 430.388 392.689 431.012C393.769 431.612 394.981 431.912 396.325 431.912ZM426.994 415.064L417.526 436.268C416.758 438.044 415.87 439.304 414.862 440.048C413.854 440.792 412.642 441.164 411.226 441.164C410.314 441.164 409.462 441.02 408.67 440.732C407.878 440.444 407.194 440.012 406.618 439.436L407.806 437.528C408.766 438.488 409.918 438.968 411.262 438.968C412.126 438.968 412.858 438.728 413.458 438.248C414.082 437.768 414.658 436.952 415.186 435.8L416.014 433.964L407.554 415.064H410.218L417.346 431.156L424.474 415.064H426.994ZM449.614 424.136C450.958 424.448 451.99 424.988 452.71 425.756C453.454 426.524 453.826 427.46 453.826 428.564C453.826 429.668 453.442 430.652 452.674 431.516C451.93 432.38 450.91 433.052 449.614 433.532C448.318 433.988 446.89 434.216 445.33 434.216C443.962 434.216 442.618 434.024 441.298 433.64C439.978 433.232 438.826 432.644 437.842 431.876L438.706 429.968C439.57 430.616 440.578 431.12 441.73 431.48C442.882 431.84 444.046 432.02 445.222 432.02C446.974 432.02 448.402 431.696 449.506 431.048C450.634 430.376 451.198 429.476 451.198 428.348C451.198 427.34 450.742 426.56 449.83 426.008C448.918 425.432 447.67 425.144 446.086 425.144H442.846V423.272H445.942C447.358 423.272 448.498 423.008 449.362 422.48C450.226 421.928 450.658 421.196 450.658 420.284C450.658 419.276 450.166 418.484 449.182 417.908C448.222 417.332 446.962 417.044 445.402 417.044C443.362 417.044 441.346 417.56 439.354 418.592L438.634 416.612C440.89 415.436 443.23 414.848 445.654 414.848C447.094 414.848 448.39 415.064 449.542 415.496C450.718 415.904 451.63 416.492 452.278 417.26C452.95 418.028 453.286 418.916 453.286 419.924C453.286 420.884 452.95 421.736 452.278 422.48C451.63 423.224 450.742 423.776 449.614 424.136ZM466.144 414.92C468.616 414.92 470.512 415.544 471.832 416.792C473.152 418.016 473.812 419.84 473.812 422.264V434H471.364V431.048C470.788 432.032 469.936 432.8 468.808 433.352C467.704 433.904 466.384 434.18 464.848 434.18C462.736 434.18 461.056 433.676 459.808 432.668C458.56 431.66 457.936 430.328 457.936 428.672C457.936 427.064 458.512 425.768 459.664 424.784C460.84 423.8 462.7 423.308 465.244 423.308H471.256V422.156C471.256 420.524 470.8 419.288 469.888 418.448C468.976 417.584 467.644 417.152 465.892 417.152C464.692 417.152 463.54 417.356 462.436 417.764C461.332 418.148 460.384 418.688 459.592 419.384L458.44 417.476C459.4 416.66 460.552 416.036 461.896 415.604C463.24 415.148 464.656 414.92 466.144 414.92ZM465.244 432.164C466.684 432.164 467.92 431.84 468.952 431.192C469.984 430.52 470.752 429.56 471.256 428.312V425.216H465.316C462.076 425.216 460.456 426.344 460.456 428.6C460.456 429.704 460.876 430.58 461.716 431.228C462.556 431.852 463.732 432.164 465.244 432.164ZM70.696 468.208C73.264 468.808 74.548 470.356 74.548 472.852C74.548 474.508 73.936 475.78 72.712 476.668C71.488 477.556 69.664 478 67.24 478H58.636V459.064H66.988C69.148 459.064 70.84 459.484 72.064 460.324C73.288 461.164 73.9 462.364 73.9 463.924C73.9 464.956 73.612 465.844 73.036 466.588C72.484 467.308 71.704 467.848 70.696 468.208ZM61.12 467.488H66.808C68.272 467.488 69.388 467.212 70.156 466.66C70.948 466.108 71.344 465.304 71.344 464.248C71.344 463.192 70.948 462.4 70.156 461.872C69.388 461.344 68.272 461.08 66.808 461.08H61.12V467.488ZM67.132 475.984C68.764 475.984 69.988 475.72 70.804 475.192C71.62 474.664 72.028 473.836 72.028 472.708C72.028 471.58 71.656 470.752 70.912 470.224C70.168 469.672 68.992 469.396 67.384 469.396H61.12V475.984H67.132ZM88.4583 478.18C86.5863 478.18 84.9063 477.772 83.4183 476.956C81.9543 476.14 80.8023 475 79.9623 473.536C79.1223 472.048 78.7023 470.38 78.7023 468.532C78.7023 466.684 79.1223 465.028 79.9623 463.564C80.8023 462.1 81.9543 460.96 83.4183 460.144C84.9063 459.328 86.5863 458.92 88.4583 458.92C90.0903 458.92 91.5423 459.244 92.8143 459.892C94.1103 460.516 95.1303 461.44 95.8743 462.664L93.9663 463.96C93.3423 463.024 92.5503 462.328 91.5903 461.872C90.6303 461.392 89.5863 461.152 88.4583 461.152C87.0903 461.152 85.8543 461.464 84.7503 462.088C83.6703 462.688 82.8183 463.552 82.1943 464.68C81.5943 465.808 81.2943 467.092 81.2943 468.532C81.2943 469.996 81.5943 471.292 82.1943 472.42C82.8183 473.524 83.6703 474.388 84.7503 475.012C85.8543 475.612 87.0903 475.912 88.4583 475.912C89.5863 475.912 90.6303 475.684 91.5903 475.228C92.5503 474.772 93.3423 474.076 93.9663 473.14L95.8743 474.436C95.1303 475.66 94.1103 476.596 92.8143 477.244C91.5183 477.868 90.0663 478.18 88.4583 478.18ZM117.067 469.324H101.227C101.371 471.292 102.127 472.888 103.495 474.112C104.863 475.312 106.591 475.912 108.679 475.912C109.855 475.912 110.935 475.708 111.919 475.3C112.903 474.868 113.755 474.244 114.475 473.428L115.915 475.084C115.075 476.092 114.019 476.86 112.747 477.388C111.499 477.916 110.119 478.18 108.607 478.18C106.663 478.18 104.935 477.772 103.423 476.956C101.935 476.116 100.771 474.964 99.9311 473.5C99.0911 472.036 98.6711 470.38 98.6711 468.532C98.6711 466.684 99.0671 465.028 99.8591 463.564C100.675 462.1 101.779 460.96 103.171 460.144C104.587 459.328 106.171 458.92 107.923 458.92C109.675 458.92 111.247 459.328 112.639 460.144C114.031 460.96 115.123 462.1 115.915 463.564C116.707 465.004 117.103 466.66 117.103 468.532L117.067 469.324ZM107.923 461.116C106.099 461.116 104.563 461.704 103.315 462.88C102.091 464.032 101.395 465.544 101.227 467.416H114.655C114.487 465.544 113.779 464.032 112.531 462.88C111.307 461.704 109.771 461.116 107.923 461.116ZM136.153 461.332H125.317V478H122.761V459.064H136.153V461.332ZM146.78 478.18C144.956 478.18 143.312 477.772 141.848 476.956C140.384 476.116 139.232 474.964 138.392 473.5C137.552 472.036 137.132 470.38 137.132 468.532C137.132 466.684 137.552 465.028 138.392 463.564C139.232 462.1 140.384 460.96 141.848 460.144C143.312 459.328 144.956 458.92 146.78 458.92C148.604 458.92 150.248 459.328 151.712 460.144C153.176 460.96 154.316 462.1 155.132 463.564C155.972 465.028 156.392 466.684 156.392 468.532C156.392 470.38 155.972 472.036 155.132 473.5C154.316 474.964 153.176 476.116 151.712 476.956C150.248 477.772 148.604 478.18 146.78 478.18ZM146.78 475.912C148.124 475.912 149.324 475.612 150.38 475.012C151.46 474.388 152.3 473.512 152.9 472.384C153.5 471.256 153.8 469.972 153.8 468.532C153.8 467.092 153.5 465.808 152.9 464.68C152.3 463.552 151.46 462.688 150.38 462.088C149.324 461.464 148.124 461.152 146.78 461.152C145.436 461.152 144.224 461.464 143.144 462.088C142.088 462.688 141.248 463.552 140.624 464.68C140.024 465.808 139.724 467.092 139.724 468.532C139.724 469.972 140.024 471.256 140.624 472.384C141.248 473.512 142.088 474.388 143.144 475.012C144.224 475.612 145.436 475.912 146.78 475.912ZM180.493 468.136C181.837 468.448 182.869 468.988 183.589 469.756C184.333 470.524 184.705 471.46 184.705 472.564C184.705 473.668 184.321 474.652 183.553 475.516C182.809 476.38 181.789 477.052 180.493 477.532C179.197 477.988 177.769 478.216 176.209 478.216C174.841 478.216 173.497 478.024 172.177 477.64C170.857 477.232 169.705 476.644 168.721 475.876L169.585 473.968C170.449 474.616 171.457 475.12 172.609 475.48C173.761 475.84 174.925 476.02 176.101 476.02C177.853 476.02 179.281 475.696 180.385 475.048C181.513 474.376 182.077 473.476 182.077 472.348C182.077 471.34 181.621 470.56 180.709 470.008C179.797 469.432 178.549 469.144 176.965 469.144H173.725V467.272H176.821C178.237 467.272 179.377 467.008 180.241 466.48C181.105 465.928 181.537 465.196 181.537 464.284C181.537 463.276 181.045 462.484 180.061 461.908C179.101 461.332 177.841 461.044 176.281 461.044C174.241 461.044 172.225 461.56 170.233 462.592L169.513 460.612C171.769 459.436 174.109 458.848 176.533 458.848C177.973 458.848 179.269 459.064 180.421 459.496C181.597 459.904 182.509 460.492 183.157 461.26C183.829 462.028 184.165 462.916 184.165 463.924C184.165 464.884 183.829 465.736 183.157 466.48C182.509 467.224 181.621 467.776 180.493 468.136ZM197.023 458.92C199.495 458.92 201.391 459.544 202.711 460.792C204.031 462.016 204.691 463.84 204.691 466.264V478H202.243V475.048C201.667 476.032 200.815 476.8 199.687 477.352C198.583 477.904 197.263 478.18 195.727 478.18C193.615 478.18 191.935 477.676 190.687 476.668C189.439 475.66 188.815 474.328 188.815 472.672C188.815 471.064 189.391 469.768 190.543 468.784C191.719 467.8 193.579 467.308 196.123 467.308H202.135V466.156C202.135 464.524 201.679 463.288 200.767 462.448C199.855 461.584 198.523 461.152 196.771 461.152C195.571 461.152 194.419 461.356 193.315 461.764C192.211 462.148 191.263 462.688 190.471 463.384L189.319 461.476C190.279 460.66 191.431 460.036 192.775 459.604C194.119 459.148 195.535 458.92 197.023 458.92ZM196.123 476.164C197.563 476.164 198.799 475.84 199.831 475.192C200.863 474.52 201.631 473.56 202.135 472.312V469.216H196.195C192.955 469.216 191.335 470.344 191.335 472.6C191.335 473.704 191.755 474.58 192.595 475.228C193.435 475.852 194.611 476.164 196.123 476.164Z" fill="black"/>
<path d="M507.408 429.248V434H488.364V430.22L498.084 421.04C499.116 420.056 499.812 419.216 500.172 418.52C500.532 417.8 500.712 417.092 500.712 416.396C500.712 415.388 500.364 414.62 499.668 414.092C498.996 413.54 498 413.264 496.68 413.264C495.576 413.264 494.58 413.48 493.692 413.912C492.804 414.32 492.06 414.944 491.46 415.784L487.212 413.048C488.196 411.584 489.552 410.444 491.28 409.628C493.008 408.788 494.988 408.368 497.22 408.368C499.092 408.368 500.724 408.68 502.116 409.304C503.532 409.904 504.624 410.768 505.392 411.896C506.184 413 506.58 414.308 506.58 415.82C506.58 417.188 506.292 418.472 505.716 419.672C505.14 420.872 504.024 422.24 502.368 423.776L496.572 429.248H507.408ZM538.729 414.632V434H533.113V426.8C531.481 427.616 529.681 428.024 527.713 428.024C525.097 428.024 523.117 427.436 521.773 426.26C520.453 425.06 519.793 423.212 519.793 420.716V414.632H525.409V420.356C525.409 421.532 525.709 422.384 526.309 422.912C526.933 423.44 527.821 423.704 528.973 423.704C530.437 423.704 531.817 423.392 533.113 422.768V414.632H538.729ZM551.646 414.344C554.646 414.344 556.95 415.064 558.558 416.504C560.166 417.92 560.97 420.068 560.97 422.948V434H555.714V431.588C554.658 433.388 552.69 434.288 549.81 434.288C548.322 434.288 547.026 434.036 545.922 433.532C544.842 433.028 544.014 432.332 543.438 431.444C542.862 430.556 542.574 429.548 542.574 428.42C542.574 426.62 543.246 425.204 544.59 424.172C545.958 423.14 548.058 422.624 550.89 422.624H555.354C555.354 421.4 554.982 420.464 554.238 419.816C553.494 419.144 552.378 418.808 550.89 418.808C549.858 418.808 548.838 418.976 547.83 419.312C546.846 419.624 546.006 420.056 545.31 420.608L543.294 416.684C544.35 415.94 545.61 415.364 547.074 414.956C548.562 414.548 550.086 414.344 551.646 414.344ZM551.214 430.508C552.174 430.508 553.026 430.292 553.77 429.86C554.514 429.404 555.042 428.744 555.354 427.88V425.9H551.502C549.198 425.9 548.046 426.656 548.046 428.168C548.046 428.888 548.322 429.464 548.874 429.896C549.45 430.304 550.23 430.508 551.214 430.508ZM575.064 434.288C573 434.288 571.14 433.868 569.484 433.028C567.852 432.164 566.568 430.976 565.632 429.464C564.72 427.952 564.264 426.236 564.264 424.316C564.264 422.396 564.72 420.68 565.632 419.168C566.568 417.656 567.852 416.48 569.484 415.64C571.14 414.776 573 414.344 575.064 414.344C577.104 414.344 578.88 414.776 580.392 415.64C581.928 416.48 583.044 417.692 583.74 419.276L579.384 421.616C578.376 419.84 576.924 418.952 575.028 418.952C573.564 418.952 572.352 419.432 571.392 420.392C570.432 421.352 569.952 422.66 569.952 424.316C569.952 425.972 570.432 427.28 571.392 428.24C572.352 429.2 573.564 429.68 575.028 429.68C576.948 429.68 578.4 428.792 579.384 427.016L583.74 429.392C583.044 430.928 581.928 432.128 580.392 432.992C578.88 433.856 577.104 434.288 575.064 434.288ZM594.677 414.344C597.677 414.344 599.981 415.064 601.589 416.504C603.197 417.92 604.001 420.068 604.001 422.948V434H598.745V431.588C597.689 433.388 595.721 434.288 592.841 434.288C591.353 434.288 590.057 434.036 588.953 433.532C587.873 433.028 587.045 432.332 586.469 431.444C585.893 430.556 585.605 429.548 585.605 428.42C585.605 426.62 586.277 425.204 587.621 424.172C588.989 423.14 591.089 422.624 593.921 422.624H598.385C598.385 421.4 598.013 420.464 597.269 419.816C596.525 419.144 595.409 418.808 593.921 418.808C592.889 418.808 591.869 418.976 590.861 419.312C589.877 419.624 589.037 420.056 588.341 420.608L586.325 416.684C587.381 415.94 588.641 415.364 590.105 414.956C591.593 414.548 593.117 414.344 594.677 414.344ZM594.245 430.508C595.205 430.508 596.057 430.292 596.801 429.86C597.545 429.404 598.073 428.744 598.385 427.88V425.9H594.533C592.229 425.9 591.077 426.656 591.077 428.168C591.077 428.888 591.353 429.464 591.905 429.896C592.481 430.304 593.261 430.508 594.245 430.508ZM227.325 462.268C230.877 462.268 233.493 462.976 235.173 464.392C236.877 465.808 237.729 467.704 237.729 470.08C237.729 471.616 237.345 473.02 236.577 474.292C235.809 475.54 234.633 476.548 233.049 477.316C231.489 478.06 229.557 478.432 227.253 478.432C225.477 478.432 223.725 478.204 221.997 477.748C220.293 477.268 218.841 476.596 217.641 475.732L219.945 471.268C220.905 471.988 222.009 472.552 223.257 472.96C224.505 473.344 225.789 473.536 227.109 473.536C228.573 473.536 229.725 473.248 230.565 472.672C231.405 472.096 231.825 471.292 231.825 470.26C231.825 469.18 231.381 468.364 230.493 467.812C229.629 467.26 228.117 466.984 225.957 466.984H219.513L220.809 452.8H236.181V457.48H225.669L225.273 462.268H227.325ZM248.951 452.368C252.479 452.368 255.239 453.448 257.231 455.608C259.223 457.744 260.219 460.828 260.219 464.86C260.219 467.716 259.679 470.164 258.599 472.204C257.543 474.244 256.043 475.792 254.099 476.848C252.155 477.904 249.911 478.432 247.367 478.432C246.023 478.432 244.739 478.288 243.515 478C242.291 477.688 241.247 477.256 240.383 476.704L242.543 472.42C243.767 473.26 245.339 473.68 247.259 473.68C249.395 473.68 251.087 473.056 252.335 471.808C253.583 470.536 254.255 468.712 254.351 466.336C252.839 467.848 250.751 468.604 248.087 468.604C246.479 468.604 245.015 468.28 243.695 467.632C242.375 466.984 241.331 466.072 240.563 464.896C239.795 463.696 239.411 462.316 239.411 460.756C239.411 459.076 239.831 457.6 240.671 456.328C241.511 455.056 242.651 454.084 244.091 453.412C245.555 452.716 247.175 452.368 248.951 452.368ZM249.383 464.248C250.655 464.248 251.687 463.9 252.479 463.204C253.295 462.484 253.703 461.572 253.703 460.468C253.703 459.364 253.307 458.464 252.515 457.768C251.747 457.072 250.679 456.724 249.311 456.724C248.063 456.724 247.043 457.06 246.251 457.732C245.483 458.404 245.099 459.316 245.099 460.468C245.099 461.62 245.483 462.544 246.251 463.24C247.043 463.912 248.087 464.248 249.383 464.248ZM271.873 452.368C275.401 452.368 278.161 453.448 280.153 455.608C282.145 457.744 283.141 460.828 283.141 464.86C283.141 467.716 282.601 470.164 281.521 472.204C280.465 474.244 278.965 475.792 277.021 476.848C275.077 477.904 272.833 478.432 270.289 478.432C268.945 478.432 267.661 478.288 266.437 478C265.213 477.688 264.169 477.256 263.305 476.704L265.465 472.42C266.689 473.26 268.261 473.68 270.181 473.68C272.317 473.68 274.009 473.056 275.257 471.808C276.505 470.536 277.177 468.712 277.273 466.336C275.761 467.848 273.673 468.604 271.009 468.604C269.401 468.604 267.937 468.28 266.617 467.632C265.297 466.984 264.253 466.072 263.485 464.896C262.717 463.696 262.333 462.316 262.333 460.756C262.333 459.076 262.753 457.6 263.593 456.328C264.433 455.056 265.573 454.084 267.013 453.412C268.477 452.716 270.097 452.368 271.873 452.368ZM272.305 464.248C273.577 464.248 274.609 463.9 275.401 463.204C276.217 462.484 276.625 461.572 276.625 460.468C276.625 459.364 276.229 458.464 275.437 457.768C274.669 457.072 273.601 456.724 272.233 456.724C270.985 456.724 269.965 457.06 269.173 457.732C268.405 458.404 268.021 459.316 268.021 460.468C268.021 461.62 268.405 462.544 269.173 463.24C269.965 463.912 271.009 464.248 272.305 464.248ZM296.739 478.432C294.651 478.432 292.791 477.916 291.159 476.884C289.527 475.852 288.243 474.364 287.307 472.42C286.395 470.452 285.939 468.112 285.939 465.4C285.939 462.688 286.395 460.36 287.307 458.416C288.243 456.448 289.527 454.948 291.159 453.916C292.791 452.884 294.651 452.368 296.739 452.368C298.827 452.368 300.687 452.884 302.319 453.916C303.951 454.948 305.223 456.448 306.135 458.416C307.071 460.36 307.539 462.688 307.539 465.4C307.539 468.112 307.071 470.452 306.135 472.42C305.223 474.364 303.951 475.852 302.319 476.884C300.687 477.916 298.827 478.432 296.739 478.432ZM296.739 473.5C298.275 473.5 299.475 472.84 300.339 471.52C301.227 470.2 301.671 468.16 301.671 465.4C301.671 462.64 301.227 460.6 300.339 459.28C299.475 457.96 298.275 457.3 296.739 457.3C295.227 457.3 294.027 457.96 293.139 459.28C292.275 460.6 291.843 462.64 291.843 465.4C291.843 468.16 292.275 470.2 293.139 471.52C294.027 472.84 295.227 473.5 296.739 473.5ZM333.276 458.344C335.076 458.344 336.708 458.764 338.172 459.604C339.66 460.42 340.824 461.584 341.664 463.096C342.504 464.584 342.924 466.324 342.924 468.316C342.924 470.308 342.504 472.06 341.664 473.572C340.824 475.06 339.66 476.224 338.172 477.064C336.708 477.88 335.076 478.288 333.276 478.288C330.804 478.288 328.86 477.508 327.444 475.948V484.984H321.828V458.632H327.192V460.864C328.584 459.184 330.612 458.344 333.276 458.344ZM332.304 473.68C333.744 473.68 334.92 473.2 335.832 472.24C336.768 471.256 337.236 469.948 337.236 468.316C337.236 466.684 336.768 465.388 335.832 464.428C334.92 463.444 333.744 462.952 332.304 462.952C330.864 462.952 329.676 463.444 328.74 464.428C327.828 465.388 327.372 466.684 327.372 468.316C327.372 469.948 327.828 471.256 328.74 472.24C329.676 473.2 330.864 473.68 332.304 473.68ZM365.737 458.632L356.989 479.188C356.101 481.42 354.997 482.992 353.677 483.904C352.381 484.816 350.809 485.272 348.961 485.272C347.953 485.272 346.957 485.116 345.973 484.804C344.989 484.492 344.185 484.06 343.561 483.508L345.613 479.512C346.045 479.896 346.537 480.196 347.089 480.412C347.665 480.628 348.229 480.736 348.781 480.736C349.549 480.736 350.173 480.544 350.653 480.16C351.133 479.8 351.565 479.188 351.949 478.324L352.021 478.144L343.633 458.632H349.429L354.865 471.772L360.337 458.632H365.737ZM379.501 459.964C381.349 459.964 382.969 460.348 384.361 461.116C385.753 461.86 386.821 462.916 387.565 464.284C388.333 465.652 388.717 467.236 388.717 469.036C388.717 470.884 388.261 472.528 387.349 473.968C386.461 475.384 385.213 476.488 383.605 477.28C381.997 478.048 380.173 478.432 378.133 478.432C374.749 478.432 372.085 477.352 370.141 475.192C368.221 473.008 367.261 469.816 367.261 465.616C367.261 461.728 368.101 458.632 369.781 456.328C371.485 454 374.089 452.476 377.593 451.756L386.809 449.92L387.565 454.744L379.429 456.364C377.221 456.796 375.577 457.516 374.497 458.524C373.441 459.532 372.817 460.96 372.625 462.808C373.465 461.896 374.473 461.2 375.649 460.72C376.825 460.216 378.109 459.964 379.501 459.964ZM378.169 474.076C379.609 474.076 380.761 473.608 381.625 472.672C382.513 471.736 382.957 470.548 382.957 469.108C382.957 467.644 382.513 466.48 381.625 465.616C380.761 464.752 379.609 464.32 378.169 464.32C376.705 464.32 375.529 464.752 374.641 465.616C373.753 466.48 373.309 467.644 373.309 469.108C373.309 470.572 373.765 471.772 374.677 472.708C375.589 473.62 376.753 474.076 378.169 474.076ZM410.823 458.632V478H405.207V463.24H399.087L398.907 466.66C398.811 469.204 398.571 471.316 398.187 472.996C397.803 474.676 397.179 475.996 396.315 476.956C395.451 477.916 394.251 478.396 392.715 478.396C391.899 478.396 390.927 478.252 389.799 477.964L390.087 473.356C390.471 473.404 390.747 473.428 390.915 473.428C391.755 473.428 392.379 473.128 392.787 472.528C393.219 471.904 393.507 471.124 393.651 470.188C393.795 469.228 393.903 467.968 393.975 466.408L394.263 458.632H410.823ZM435.051 468.388C435.051 468.46 435.015 468.964 434.943 469.9H420.291C420.555 471.1 421.179 472.048 422.163 472.744C423.147 473.44 424.371 473.788 425.835 473.788C426.843 473.788 427.731 473.644 428.499 473.356C429.291 473.044 430.023 472.564 430.695 471.916L433.683 475.156C431.859 477.244 429.195 478.288 425.691 478.288C423.507 478.288 421.575 477.868 419.895 477.028C418.215 476.164 416.919 474.976 416.007 473.464C415.095 471.952 414.639 470.236 414.639 468.316C414.639 466.42 415.083 464.716 415.971 463.204C416.883 461.668 418.119 460.48 419.679 459.64C421.263 458.776 423.027 458.344 424.971 458.344C426.867 458.344 428.583 458.752 430.119 459.568C431.655 460.384 432.855 461.56 433.719 463.096C434.607 464.608 435.051 466.372 435.051 468.388ZM425.007 462.592C423.735 462.592 422.667 462.952 421.803 463.672C420.939 464.392 420.411 465.376 420.219 466.624H429.759C429.567 465.4 429.039 464.428 428.175 463.708C427.311 462.964 426.255 462.592 425.007 462.592ZM439.356 458.632H444.936V470.152L454.368 458.632H459.516V478H453.936V466.48L444.54 478H439.356V458.632ZM449.076 456.544C444.852 456.544 442.728 454.684 442.704 450.964H446.376C446.4 451.804 446.628 452.464 447.06 452.944C447.516 453.4 448.176 453.628 449.04 453.628C449.904 453.628 450.564 453.4 451.02 452.944C451.5 452.464 451.74 451.804 451.74 450.964H455.484C455.46 454.684 453.324 456.544 449.076 456.544Z" fill="#733BBD"/>
<g filter="url(#filter0_d_129_238)">
<rect x="55" y="573" width="296" height="64" rx="32" fill="#A259E9"/>
</g>
<path d="M112.136 605.216C113.24 605.488 114.104 605.984 114.728 606.704C115.368 607.424 115.688 608.288 115.688 609.296C115.688 610.272 115.384 611.128 114.776 611.864C114.168 612.6 113.36 613.168 112.352 613.568C111.344 613.952 110.248 614.144 109.064 614.144C107.944 614.144 106.84 613.968 105.752 613.616C104.68 613.248 103.712 612.704 102.848 611.984L103.496 610.712C104.232 611.336 105.072 611.816 106.016 612.152C106.96 612.472 107.912 612.632 108.872 612.632C109.784 612.632 110.624 612.488 111.392 612.2C112.16 611.912 112.768 611.504 113.216 610.976C113.68 610.432 113.912 609.792 113.912 609.056C113.912 608.08 113.528 607.328 112.76 606.8C111.992 606.272 110.912 606.008 109.52 606.008H105.92V604.568H109.424C110.608 604.568 111.528 604.32 112.184 603.824C112.856 603.312 113.192 602.608 113.192 601.712C113.192 600.72 112.768 599.944 111.92 599.384C111.072 598.808 110.008 598.52 108.728 598.52C107.928 598.52 107.12 598.64 106.304 598.88C105.488 599.104 104.712 599.448 103.976 599.912L103.376 598.448C105.04 597.456 106.84 596.96 108.776 596.96C109.912 596.96 110.952 597.144 111.896 597.512C112.84 597.88 113.584 598.408 114.128 599.096C114.688 599.784 114.968 600.592 114.968 601.52C114.968 602.416 114.72 603.192 114.224 603.848C113.728 604.488 113.032 604.944 112.136 605.216ZM124.034 601.28C125.682 601.28 126.946 601.696 127.826 602.528C128.706 603.344 129.146 604.56 129.146 606.176V614H127.514V612.032C127.13 612.688 126.562 613.2 125.81 613.568C125.074 613.936 124.194 614.12 123.17 614.12C121.762 614.12 120.642 613.784 119.81 613.112C118.978 612.44 118.562 611.552 118.562 610.448C118.562 609.376 118.946 608.512 119.714 607.856C120.498 607.2 121.738 606.872 123.434 606.872H127.442V606.104C127.442 605.016 127.138 604.192 126.53 603.632C125.922 603.056 125.034 602.768 123.866 602.768C123.066 602.768 122.298 602.904 121.562 603.176C120.826 603.432 120.194 603.792 119.666 604.256L118.898 602.984C119.538 602.44 120.306 602.024 121.202 601.736C122.098 601.432 123.042 601.28 124.034 601.28ZM123.434 612.776C124.394 612.776 125.218 612.56 125.906 612.128C126.594 611.68 127.106 611.04 127.442 610.208V608.144H123.482C121.322 608.144 120.242 608.896 120.242 610.4C120.242 611.136 120.522 611.72 121.082 612.152C121.642 612.568 122.426 612.776 123.434 612.776ZM138.266 608.384H135.386V614H133.682V601.376H135.386V606.92H138.29L142.73 601.376H144.578L139.61 607.496L144.938 614H142.922L138.266 608.384ZM151.737 601.28C153.385 601.28 154.649 601.696 155.529 602.528C156.409 603.344 156.849 604.56 156.849 606.176V614H155.217V612.032C154.833 612.688 154.265 613.2 153.513 613.568C152.777 613.936 151.897 614.12 150.873 614.12C149.465 614.12 148.345 613.784 147.513 613.112C146.681 612.44 146.265 611.552 146.265 610.448C146.265 609.376 146.649 608.512 147.417 607.856C148.201 607.2 149.441 606.872 151.137 606.872H155.145V606.104C155.145 605.016 154.841 604.192 154.233 603.632C153.625 603.056 152.737 602.768 151.569 602.768C150.769 602.768 150.001 602.904 149.265 603.176C148.529 603.432 147.897 603.792 147.369 604.256L146.601 602.984C147.241 602.44 148.009 602.024 148.905 601.736C149.801 601.432 150.745 601.28 151.737 601.28ZM151.137 612.776C152.097 612.776 152.921 612.56 153.609 612.128C154.297 611.68 154.809 611.04 155.145 610.208V608.144H151.185C149.025 608.144 147.945 608.896 147.945 610.4C147.945 611.136 148.225 611.72 148.785 612.152C149.345 612.568 150.129 612.776 151.137 612.776ZM167.271 607.424C168.167 607.632 168.855 607.992 169.335 608.504C169.831 609.016 170.079 609.64 170.079 610.376C170.079 611.112 169.823 611.768 169.311 612.344C168.815 612.92 168.135 613.368 167.271 613.688C166.407 613.992 165.455 614.144 164.415 614.144C163.503 614.144 162.607 614.016 161.727 613.76C160.847 613.488 160.079 613.096 159.423 612.584L159.999 611.312C160.575 611.744 161.247 612.08 162.015 612.32C162.783 612.56 163.559 612.68 164.343 612.68C165.511 612.68 166.463 612.464 167.199 612.032C167.951 611.584 168.327 610.984 168.327 610.232C168.327 609.56 168.023 609.04 167.415 608.672C166.807 608.288 165.975 608.096 164.919 608.096H162.759V606.848H164.823C165.767 606.848 166.527 606.672 167.103 606.32C167.679 605.952 167.967 605.464 167.967 604.856C167.967 604.184 167.639 603.656 166.983 603.272C166.343 602.888 165.503 602.696 164.463 602.696C163.103 602.696 161.759 603.04 160.431 603.728L159.951 602.408C161.455 601.624 163.015 601.232 164.631 601.232C165.591 601.232 166.455 601.376 167.223 601.664C168.007 601.936 168.615 602.328 169.047 602.84C169.495 603.352 169.719 603.944 169.719 604.616C169.719 605.256 169.495 605.824 169.047 606.32C168.615 606.816 168.023 607.184 167.271 607.424ZM178.291 601.28C179.939 601.28 181.203 601.696 182.083 602.528C182.963 603.344 183.403 604.56 183.403 606.176V614H181.771V612.032C181.387 612.688 180.819 613.2 180.067 613.568C179.331 613.936 178.451 614.12 177.427 614.12C176.019 614.12 174.899 613.784 174.067 613.112C173.235 612.44 172.819 611.552 172.819 610.448C172.819 609.376 173.203 608.512 173.971 607.856C174.755 607.2 175.995 606.872 177.691 606.872H181.699V606.104C181.699 605.016 181.395 604.192 180.787 603.632C180.179 603.056 179.291 602.768 178.123 602.768C177.323 602.768 176.555 602.904 175.819 603.176C175.083 603.432 174.451 603.792 173.923 604.256L173.155 602.984C173.795 602.44 174.563 602.024 175.459 601.736C176.355 601.432 177.299 601.28 178.291 601.28ZM177.691 612.776C178.651 612.776 179.475 612.56 180.163 612.128C180.851 611.68 181.363 611.04 181.699 610.208V608.144H177.739C175.579 608.144 174.499 608.896 174.499 610.4C174.499 611.136 174.779 611.72 175.339 612.152C175.899 612.568 176.683 612.776 177.691 612.776ZM196.82 602.888H192.044V614H190.34V602.888H185.564V601.376H196.82V602.888ZM204.707 605.84C206.291 605.856 207.491 606.208 208.307 606.896C209.139 607.584 209.555 608.576 209.555 609.872C209.555 611.216 209.107 612.248 208.211 612.968C207.331 613.688 206.051 614.04 204.371 614.024L199.283 614V601.376H200.987V605.792L204.707 605.84ZM204.275 612.728C205.443 612.744 206.323 612.512 206.915 612.032C207.523 611.536 207.827 610.816 207.827 609.872C207.827 608.944 207.531 608.256 206.939 607.808C206.347 607.36 205.459 607.128 204.275 607.112L200.987 607.064V612.68L204.275 612.728ZM229.816 601.376L223.504 615.512C222.992 616.696 222.4 617.536 221.728 618.032C221.056 618.528 220.248 618.776 219.304 618.776C218.696 618.776 218.128 618.68 217.6 618.488C217.072 618.296 216.616 618.008 216.232 617.624L217.024 616.352C217.664 616.992 218.432 617.312 219.328 617.312C219.904 617.312 220.392 617.152 220.792 616.832C221.208 616.512 221.592 615.968 221.944 615.2L222.496 613.976L216.856 601.376H218.632L223.384 612.104L228.136 601.376H229.816ZM238.403 601.688C239.571 601.688 240.611 601.952 241.523 602.48C242.451 602.992 243.171 603.72 243.683 604.664C244.195 605.592 244.451 606.656 244.451 607.856C244.451 609.088 244.179 610.184 243.635 611.144C243.107 612.088 242.363 612.824 241.403 613.352C240.443 613.88 239.339 614.144 238.091 614.144C235.995 614.144 234.371 613.408 233.219 611.936C232.067 610.464 231.491 608.432 231.491 605.84C231.491 603.136 232.003 601.064 233.027 599.624C234.067 598.184 235.683 597.208 237.875 596.696L243.539 595.4L243.827 596.96L238.499 598.184C236.691 598.584 235.363 599.296 234.515 600.32C233.667 601.328 233.203 602.824 233.123 604.808C233.635 603.832 234.347 603.072 235.259 602.528C236.171 601.968 237.219 601.688 238.403 601.688ZM238.139 612.728C239.019 612.728 239.803 612.528 240.491 612.128C241.195 611.712 241.739 611.136 242.123 610.4C242.523 609.664 242.723 608.832 242.723 607.904C242.723 606.976 242.531 606.16 242.147 605.456C241.763 604.752 241.219 604.208 240.515 603.824C239.827 603.424 239.035 603.224 238.139 603.224C237.243 603.224 236.443 603.424 235.739 603.824C235.051 604.208 234.507 604.752 234.107 605.456C233.723 606.16 233.531 606.976 233.531 607.904C233.531 608.832 233.723 609.664 234.107 610.4C234.507 611.136 235.059 611.712 235.763 612.128C236.467 612.528 237.259 612.728 238.139 612.728ZM253.312 614.12C252.096 614.12 251 613.848 250.024 613.304C249.048 612.744 248.28 611.976 247.72 611C247.16 610.024 246.88 608.92 246.88 607.688C246.88 606.456 247.16 605.352 247.72 604.376C248.28 603.4 249.048 602.64 250.024 602.096C251 601.552 252.096 601.28 253.312 601.28C254.528 601.28 255.624 601.552 256.6 602.096C257.576 602.64 258.336 603.4 258.88 604.376C259.44 605.352 259.72 606.456 259.72 607.688C259.72 608.92 259.44 610.024 258.88 611C258.336 611.976 257.576 612.744 256.6 613.304C255.624 613.848 254.528 614.12 253.312 614.12ZM253.312 612.608C254.208 612.608 255.008 612.408 255.712 612.008C256.432 611.592 256.992 611.008 257.392 610.256C257.792 609.504 257.992 608.648 257.992 607.688C257.992 606.728 257.792 605.872 257.392 605.12C256.992 604.368 256.432 603.792 255.712 603.392C255.008 602.976 254.208 602.768 253.312 602.768C252.416 602.768 251.608 602.976 250.888 603.392C250.184 603.792 249.624 604.368 249.208 605.12C248.808 605.872 248.608 606.728 248.608 607.688C248.608 608.648 248.808 609.504 249.208 610.256C249.624 611.008 250.184 611.592 250.888 612.008C251.608 612.408 252.416 612.608 253.312 612.608ZM269.866 601.28C271.05 601.28 272.122 601.552 273.082 602.096C274.042 602.624 274.794 603.376 275.338 604.352C275.882 605.328 276.154 606.44 276.154 607.688C276.154 608.952 275.882 610.072 275.338 611.048C274.794 612.024 274.042 612.784 273.082 613.328C272.138 613.856 271.066 614.12 269.866 614.12C268.842 614.12 267.914 613.912 267.082 613.496C266.266 613.064 265.594 612.44 265.066 611.624V618.656H263.362V601.376H264.994V603.872C265.506 603.04 266.178 602.4 267.01 601.952C267.858 601.504 268.81 601.28 269.866 601.28ZM269.746 612.608C270.626 612.608 271.426 612.408 272.146 612.008C272.866 611.592 273.426 611.008 273.826 610.256C274.242 609.504 274.45 608.648 274.45 607.688C274.45 606.728 274.242 605.88 273.826 605.144C273.426 604.392 272.866 603.808 272.146 603.392C271.426 602.976 270.626 602.768 269.746 602.768C268.85 602.768 268.042 602.976 267.322 603.392C266.618 603.808 266.058 604.392 265.642 605.144C265.242 605.88 265.042 606.728 265.042 607.688C265.042 608.648 265.242 609.504 265.642 610.256C266.058 611.008 266.618 611.592 267.322 612.008C268.042 612.408 268.85 612.608 269.746 612.608ZM284.399 608.384H281.519V614H279.815V601.376H281.519V606.92H284.423L288.863 601.376H290.711L285.743 607.496L291.071 614H289.055L284.399 608.384ZM303.761 601.376L297.449 615.512C296.937 616.696 296.345 617.536 295.673 618.032C295.001 618.528 294.193 618.776 293.249 618.776C292.641 618.776 292.073 618.68 291.545 618.488C291.017 618.296 290.561 618.008 290.177 617.624L290.969 616.352C291.609 616.992 292.377 617.312 293.273 617.312C293.849 617.312 294.337 617.152 294.737 616.832C295.153 616.512 295.537 615.968 295.889 615.2L296.441 613.976L290.801 601.376H292.577L297.329 612.104L302.081 601.376H303.761Z" fill="white"/>
</g>
<defs>
<filter id="filter0_d_129_238" x="35" y="557" width="336" height="104" filterUnits="userSpaceOnUse" color-interpolation-filters="sRGB">
<feFlood flood-opacity="0" result="BackgroundImageFix"/>
<feColorMatrix in="SourceAlpha" type="matrix" values="0 0 0 0 0 0 0 0 0 0 0 0 0 0 0 0 0 0 127 0" result="hardAlpha"/>
<feOffset dy="4"/>
<feGaussianBlur stdDeviation="10"/>
<feColorMatrix type="matrix" values="0 0 0 0 0 0 0 0 0 0 0 0 0 0 0 0 0 0 0.25 0"/>
<feBlend mode="normal" in2="BackgroundImageFix" result="effect1_dropShadow_129_238"/>
<feBlend mode="normal" in="SourceGraphic" in2="effect1_dropShadow_129_238" result="shape"/>
</filter>
<linearGradient id="paint0_linear_129_238" x1="346.48" y1="1259.2" x2="1397.98" y2="-29.4293" gradientUnits="userSpaceOnUse">
<stop stop-color="#7028E4"/>
<stop offset="1" stop-color="#E5B2CA"/>
</linearGradient>
<linearGradient id="paint1_linear_129_238" x1="454.816" y1="1261.11" x2="1506.31" y2="-27.5234" gradientUnits="userSpaceOnUse">
<stop stop-color="#7028E4"/>
<stop offset="1" stop-color="#E5B2CA"/>
</linearGradient>
<linearGradient id="paint2_linear_129_238" x1="376.626" y1="1228.7" x2="1428.12" y2="-59.9254" gradientUnits="userSpaceOnUse">
<stop stop-color="#7028E4"/>
<stop offset="1" stop-color="#E5B2CA"/>
</linearGradient>
<clipPath id="clip0_129_238">
<rect width="1280" height="800" fill="white"/>
</clipPath>
</defs>
</svg>
